<svg id="Layer_1" data-name="Layer 1" xmlns="http://www.w3.org/2000/svg" viewBox="0 0 449.55 378.57"><defs><style>.cls-1{fill:#231f20;}.cls-2,.cls-5,.cls-6,.cls-8,.cls-9{fill:none;}.cls-2,.cls-4{stroke:#686868;}.cls-2,.cls-4,.cls-5,.cls-6,.cls-8,.cls-9{stroke-miterlimit:10;}.cls-3{fill:#686868;}.cls-4{fill:#f4f4f5;stroke-width:0.75px;}.cls-5{stroke:#fff;stroke-width:3px;}.cls-6{stroke:#e87024;}.cls-7{fill:#e87024;}.cls-8,.cls-9{stroke:#231f20;}.cls-8{stroke-width:0.5px;}.cls-9{stroke-width:0.7px;}</style></defs><title>Configuration Space Diagram v2020-1-12</title><path class="cls-1" d="M41.33,35.14c0-6.27,3.42-10.21,8.45-10.21a6.82,6.82,0,0,1,5.14,2.36l-.81.93a5.62,5.62,0,0,0-4.32-2c-4.33,0-7,3.45-7,8.94s2.65,9.05,6.9,9.05a6.38,6.38,0,0,0,5-2.44l.81.86a7.33,7.33,0,0,1-5.88,2.83C44.73,45.42,41.33,41.42,41.33,35.14Z"/><path class="cls-1" d="M58.16,37.88c0-4.81,3-7.59,6.47-7.59s6.47,2.78,6.47,7.59-3,7.54-6.47,7.54S58.16,42.65,58.16,37.88Zm11.55,0c0-3.79-2.17-6.42-5.08-6.42s-5.08,2.63-5.08,6.42,2.17,6.37,5.08,6.37S69.71,41.68,69.71,37.88Z"/><path class="cls-1" d="M75.42,30.65h1.13l.14,2.24h.07c1.47-1.47,3-2.6,4.95-2.6,3,0,4.36,1.81,4.36,5.53v9.24H84.74V36c0-3.05-1-4.5-3.28-4.5-1.72,0-3,.9-4.71,2.7V45.06H75.42Z"/><path class="cls-1" d="M89.6,30.78l2-.13h4.63v1.16H89.6Zm2-3.33c0-2.86,1.29-4.33,3.57-4.33a5.48,5.48,0,0,1,2.1.48l-.36,1.08a4,4,0,0,0-1.72-.4c-1.55,0-2.26,1.18-2.26,3.26V45.06H91.58Z"/><path class="cls-1" d="M98.76,26a1.21,1.21,0,0,1,2.41,0,1.21,1.21,0,0,1-2.41,0Zm.51,4.65h1.33V45.06H99.27Z"/><path class="cls-1" d="M104.93,48a4.51,4.51,0,0,1,2.15-3.48v-.12a2.58,2.58,0,0,1-1.27-2.31,3.41,3.41,0,0,1,1.57-2.66v-.12a5.25,5.25,0,0,1-1.82-3.94,5,5,0,0,1,5.07-5.09,5.27,5.27,0,0,1,1.91.36h4.88v1.13h-3.35a4.75,4.75,0,0,1,1.59,3.61,5,5,0,0,1-7.42,4.48A2.64,2.64,0,0,0,107.07,42c0,1,.6,1.87,2.75,1.87h3.09c3.24,0,4.75,1,4.75,3.31,0,2.48-2.66,4.87-6.81,4.87C107.21,52,104.93,50.44,104.93,48Zm11.37-.74c0-1.59-1.15-2.19-3.33-2.19h-3.09a8.85,8.85,0,0,1-1.78-.24,3.74,3.74,0,0,0-1.89,3c0,1.82,1.74,3.05,4.78,3.05C114.23,50.92,116.3,49.09,116.3,47.27Zm-2-11.89a3.73,3.73,0,1,0-7.45,0,3.74,3.74,0,1,0,7.45,0Z"/><path class="cls-1" d="M120.53,39.89V30.65h1.32v9.07c0,3.05,1,4.51,3.28,4.51,1.72,0,3-.9,4.65-2.94V30.65h1.32V45.06H130l-.14-2.41h-.07c-1.42,1.65-2.9,2.77-4.89,2.77C121.91,45.42,120.53,43.61,120.53,39.89Z"/><path class="cls-1" d="M136.62,30.65h1.13l.14,2.69H138c1-1.77,2.38-3.05,4.09-3.05a3,3,0,0,1,1.43.3l-.3,1.2a3.27,3.27,0,0,0-1.3-.24c-1.3,0-2.83,1-3.93,3.71v9.8h-1.33Z"/><path class="cls-1" d="M144.47,41.48c0-3.21,2.89-4.73,9.29-5.44.05-2.21-.56-4.58-3.39-4.58a7.9,7.9,0,0,0-4.59,1.69l-.61-1a9.65,9.65,0,0,1,5.36-1.88c3.41,0,4.56,2.48,4.56,5.57v9.2H154l-.14-1.87h-.07a8.47,8.47,0,0,1-5.11,2.23C146.37,45.42,144.47,44.18,144.47,41.48Zm9.29.47v-4.9c-5.91.68-7.93,2.06-7.93,4.36,0,2.06,1.39,2.86,3,2.86S152,43.47,153.76,42Z"/><path class="cls-1" d="M160.24,41.08V31.81H158v-1l2.28-.13.17-4.17h1.13v4.17h4.17v1.16h-4.17v9.37c0,1.84.46,3.08,2.44,3.08a5.35,5.35,0,0,0,1.81-.45l.35,1.07a8.52,8.52,0,0,1-2.35.54C161.05,45.42,160.24,43.66,160.24,41.08Z"/><path class="cls-1" d="M168.75,26a1.21,1.21,0,0,1,2.41,0,1.21,1.21,0,0,1-2.41,0Zm.51,4.65h1.33V45.06h-1.33Z"/><path class="cls-1" d="M174.92,37.88c0-4.81,3-7.59,6.47-7.59s6.47,2.78,6.47,7.59-3,7.54-6.47,7.54S174.92,42.65,174.92,37.88Zm11.54,0c0-3.79-2.16-6.42-5.07-6.42s-5.08,2.63-5.08,6.42,2.17,6.37,5.08,6.37S186.46,41.68,186.46,37.88Z"/><path class="cls-1" d="M192.18,30.65h1.12l.15,2.24h.06c1.47-1.47,3-2.6,5-2.6,3,0,4.36,1.81,4.36,5.53v9.24H201.5V36c0-3.05-1-4.5-3.28-4.5-1.72,0-3,.9-4.71,2.7V45.06h-1.33Z"/><path class="cls-1" d="M212.77,42.44l.89-.95a7.71,7.71,0,0,0,5.8,2.68c3,0,4.92-1.62,4.92-4s-1.61-3.25-3.56-4.13l-3-1.34c-1.72-.76-4-2-4-4.92s2.46-4.87,5.75-4.87a7.56,7.56,0,0,1,5.51,2.37l-.8.92a6.3,6.3,0,0,0-4.71-2c-2.61,0-4.36,1.4-4.36,3.54,0,2.31,2,3.18,3.42,3.81l3,1.34c2.21,1,4.16,2.2,4.16,5.23s-2.49,5.32-6.33,5.32A8.66,8.66,0,0,1,212.77,42.44Z"/><path class="cls-1" d="M229.77,30.65h1.12l.15,1.82h.06A8.32,8.32,0,0,1,236,30.29c3.87,0,5.77,2.9,5.77,7.35,0,4.89-2.95,7.78-6.35,7.78a7.52,7.52,0,0,1-4.33-1.77l0,2.66v5.27h-1.33Zm10.6,7c0-3.54-1.26-6.18-4.59-6.18-1.42,0-2.94.84-4.68,2.38v8.54a7,7,0,0,0,4.24,1.85C238.27,44.24,240.37,41.56,240.37,37.65Z"/><path class="cls-1" d="M244.61,41.48c0-3.21,2.89-4.73,9.29-5.44,0-2.21-.56-4.58-3.39-4.58a7.88,7.88,0,0,0-4.59,1.69l-.61-1a9.64,9.64,0,0,1,5.35-1.88c3.42,0,4.57,2.48,4.57,5.57v9.2h-1.12L254,43.19h-.06a8.47,8.47,0,0,1-5.11,2.23C246.51,45.42,244.61,44.18,244.61,41.48Zm9.29.47v-4.9c-5.91.68-7.93,2.06-7.93,4.36,0,2.06,1.39,2.86,3.05,2.86S252.12,43.47,253.9,42Z"/><path class="cls-1" d="M259.16,37.88c0-4.81,3.08-7.59,6.58-7.59A5.92,5.92,0,0,1,270,32.07l-.78.92a4.93,4.93,0,0,0-3.41-1.53c-2.94,0-5.22,2.63-5.22,6.42s2.07,6.37,5.2,6.37a5.71,5.71,0,0,0,3.86-1.66l.69.93a6.88,6.88,0,0,1-4.61,1.9C262,45.42,259.16,42.65,259.16,37.88Z"/><path class="cls-1" d="M272.12,37.88c0-4.69,3.05-7.59,6.28-7.59,3.41,0,5.51,2.43,5.51,6.67a6.53,6.53,0,0,1-.07,1.08H273.48c0,3.64,2.18,6.23,5.42,6.23A6.5,6.5,0,0,0,282.77,43l.55,1a7.86,7.86,0,0,1-4.54,1.42C275.1,45.42,272.12,42.59,272.12,37.88ZM282.67,37c0-3.68-1.67-5.51-4.26-5.51-2.43,0-4.64,2.06-4.93,5.51Z"/><line class="cls-2" x1="381.46" y1="318.04" x2="381.46" y2="72.86"/><path class="cls-3" d="M381.46,68a24.08,24.08,0,0,0,3.81,6.83l-3.81-1.37-3.8,1.37A24.06,24.06,0,0,0,381.46,68Z"/><line class="cls-2" x1="381.46" y1="318.04" x2="136.29" y2="318.04"/><path class="cls-3" d="M131.46,318a24.39,24.39,0,0,0,6.84-3.81L136.93,318l1.37,3.8A24.11,24.11,0,0,0,131.46,318Z"/><path class="cls-1" d="M406.48,276.3l-1.62-1.36a4.12,4.12,0,0,0,1.09-2.56c0-1-.39-1.46-1-1.46s-.86.59-1.24,1.5l-.58,1.36a3,3,0,0,1-2.84,2.1c-1.73,0-3.11-1.54-3.11-3.72a4.79,4.79,0,0,1,1.37-3.35L400,270a3.43,3.43,0,0,0-.81,2.16c0,.82.34,1.34.93,1.34s.88-.69,1.24-1.6l.54-1.33a2.87,2.87,0,0,1,2.83-2.07c1.74,0,3.24,1.45,3.24,3.93A5.79,5.79,0,0,1,406.48,276.3Z"/><path class="cls-1" d="M405.59,267.29c-1.67,0-2.58-1.33-2.91-4.47a1.1,1.1,0,0,0-1.15,1.25,4.43,4.43,0,0,0,.72,2.1l-1.54.84a6.45,6.45,0,0,1-1-3.39c0-2,1.16-3.16,3.6-3.16h4.54v1.92l-.82.17v.06a3.49,3.49,0,0,1,1,2.31A2.29,2.29,0,0,1,405.59,267.29Zm-.1-4.47H404.1c.23,1.67.71,2.22,1.3,2.22s.77-.36.77-.91A1.81,1.81,0,0,0,405.49,262.82Z"/><path class="cls-1" d="M399.85,258.49v-1.92l1-.17v0a3.37,3.37,0,0,1-1.21-2.41,2.18,2.18,0,0,1,1.34-2.19,3.47,3.47,0,0,1-1.34-2.5c0-1.71,1.22-2.48,3.2-2.48h4.94v2.35h-4.63c-1.15,0-1.5.31-1.5,1a2,2,0,0,0,.77,1.35h5.36v2.36h-4.63c-1.15,0-1.5.31-1.5,1a2,2,0,0,0,.77,1.35h5.36v2.35Z"/><path class="cls-1" d="M399.85,244.78v-1.92l.79-.17v-.06a3.5,3.5,0,0,1-1-2.26c0-1.92,1.59-3.1,4-3.1,2.72,0,4.29,1.62,4.29,3.34a2.78,2.78,0,0,1-.83,1.9l1.25-.08h2.33v2.35Zm3.88-5.1c-1.43,0-2.14.44-2.14,1.38a1.82,1.82,0,0,0,.71,1.37h3.26a1.91,1.91,0,0,0,.5-1.27C406.06,240.34,405.37,239.68,403.73,239.68Z"/><path class="cls-1" d="M405.33,235.74h-8.75v-2.35h8.84c.51,0,.67-.24.67-.43a1.13,1.13,0,0,0,0-.29l1.73-.28a3.06,3.06,0,0,1,.2,1.18C408,235.19,406.93,235.74,405.33,235.74Z"/><path class="cls-1" d="M403.83,231.63a3.91,3.91,0,0,1-4.17-3.75c0-2.26,1.65-3.38,3.81-3.38a4.88,4.88,0,0,1,1,.1v4.75a1.91,1.91,0,0,0,1.68-2.06,3.31,3.31,0,0,0-.52-1.72l1.42-.78a5.15,5.15,0,0,1,.9,2.82A3.87,3.87,0,0,1,403.83,231.63Zm-.87-5.12c-.88,0-1.5.38-1.5,1.32a1.57,1.57,0,0,0,1.5,1.54Z"/><path class="cls-1" d="M399.34,217.44v2.87h-2v-8.1h2v2.87h8.46v2.36Z"/><path class="cls-1" d="M403.83,212.46a3.91,3.91,0,0,1-4.17-3.75c0-2.26,1.65-3.38,3.81-3.38a4.88,4.88,0,0,1,1,.1v4.75a1.91,1.91,0,0,0,1.68-2.06,3.31,3.31,0,0,0-.52-1.72l1.42-.78a5.15,5.15,0,0,1,.9,2.82A3.87,3.87,0,0,1,403.83,212.46Zm-.87-5.12c-.88,0-1.5.38-1.5,1.32a1.57,1.57,0,0,0,1.5,1.54Z"/><path class="cls-1" d="M399.85,203.71v-1.92l1-.17v-.06a3.33,3.33,0,0,1-1.21-2.41A2.19,2.19,0,0,1,401,197a3.45,3.45,0,0,1-1.34-2.49c0-1.72,1.22-2.48,3.2-2.48h4.94v2.35h-4.63c-1.15,0-1.5.31-1.5,1a2,2,0,0,0,.77,1.35h5.36V199h-4.63c-1.15,0-1.5.32-1.5,1a2,2,0,0,0,.77,1.36h5.36v2.35Z"/><path class="cls-1" d="M399.85,190v-1.92l.79-.17v-.06a3.5,3.5,0,0,1-1-2.26c0-1.93,1.59-3.1,4-3.1,2.72,0,4.29,1.62,4.29,3.34a2.78,2.78,0,0,1-.83,1.89l1.25-.08h2.33V190Zm3.88-5.1c-1.43,0-2.14.44-2.14,1.38a1.8,1.8,0,0,0,.71,1.36h3.26a1.89,1.89,0,0,0,.5-1.26C406.06,185.56,405.37,184.9,403.73,184.9Z"/><path class="cls-1" d="M403.83,181.29a3.91,3.91,0,0,1-4.17-3.75c0-2.26,1.65-3.38,3.81-3.38a4.88,4.88,0,0,1,1,.1V179a1.91,1.91,0,0,0,1.68-2.06,3.31,3.31,0,0,0-.52-1.72l1.42-.77a5.09,5.09,0,0,1,.9,2.81A3.87,3.87,0,0,1,403.83,181.29Zm-.87-5.12c-.88,0-1.5.38-1.5,1.32A1.57,1.57,0,0,0,403,179Z"/><path class="cls-1" d="M399.85,172.54v-1.92l1.39-.17v-.06a2.67,2.67,0,0,1-1.58-2.25,2.23,2.23,0,0,1,.16-.95l2,.39a3.31,3.31,0,0,0-.12.86,2,2,0,0,0,1.46,1.75h4.61v2.35Z"/><path class="cls-1" d="M405.59,167c-1.67,0-2.58-1.33-2.91-4.48a1.11,1.11,0,0,0-1.15,1.26,4.43,4.43,0,0,0,.72,2.1l-1.54.84a6.45,6.45,0,0,1-1-3.39c0-2,1.16-3.16,3.6-3.16h4.54v1.92l-.82.17v.06a3.49,3.49,0,0,1,1,2.31A2.29,2.29,0,0,1,405.59,167Zm-.1-4.48H404.1c.23,1.68.71,2.22,1.3,2.22s.77-.35.77-.91A1.83,1.83,0,0,0,405.49,162.51Z"/><path class="cls-1" d="M404.91,158.16H401.7v1.08h-1.76l-.09-1.21-2.11-.28v-1.94h2.11V153.9h1.85v1.91h3.18c.9,0,1.26-.41,1.26-1A2.28,2.28,0,0,0,406,154l1.71-.37a5.73,5.73,0,0,1,.29,1.77C408,157.38,406.75,158.16,404.91,158.16Z"/><path class="cls-1" d="M404.78,152.42h-4.93v-2.35h4.63c1.15,0,1.5-.31,1.5-1a1.63,1.63,0,0,0-.87-1.41h-5.26v-2.35h7.95v1.92l-1.11.17v.06A3.11,3.11,0,0,1,408,150C408,151.69,406.77,152.42,404.78,152.42Z"/><path class="cls-1" d="M399.85,143.26v-1.92l1.39-.17v-.06a2.67,2.67,0,0,1-1.58-2.25,2.23,2.23,0,0,1,.16-1l2,.39a3.25,3.25,0,0,0-.12.86,2,2,0,0,0,1.46,1.75h4.61v2.35Z"/><path class="cls-1" d="M403.83,137.51a3.9,3.9,0,0,1-4.17-3.74c0-2.26,1.65-3.38,3.81-3.38a5.84,5.84,0,0,1,1,.09v4.76a1.91,1.91,0,0,0,1.68-2.06,3.28,3.28,0,0,0-.52-1.72l1.42-.78a5.12,5.12,0,0,1,.9,2.82A3.87,3.87,0,0,1,403.83,137.51ZM403,132.4c-.88,0-1.5.38-1.5,1.32a1.57,1.57,0,0,0,1.5,1.54Z"/><path class="cls-1" d="M422.55,275.45a13.34,13.34,0,0,1-7.25-2.11l.24-.43a13.74,13.74,0,0,0,14,0l.24.43A13.33,13.33,0,0,1,422.55,275.45Z"/><path class="cls-1" d="M416.45,268.55v-.74L427,264.09v.79l-6.22,2.1c-1.25.43-2.35.8-3.64,1.17v.07c1.29.37,2.39.74,3.64,1.17l6.22,2.13v.74Zm6.31,2v-4.73h.61v4.73Z"/><path class="cls-1" d="M423,261.17l-3.67,2.38v-.78l2-1.24c.41-.25.84-.53,1.26-.81v-.07c-.42-.27-.85-.52-1.26-.79l-2-1.2v-.74l3.73,2.39,4-2.61v.79l-2.1,1.36c-.48.28-1,.59-1.41.91v.06c.45.31.93.58,1.41.89L427,263v.75Z"/><path class="cls-1" d="M416.82,256.28a.6.6,0,0,1-.62-.64.61.61,0,0,1,.62-.65.63.63,0,0,1,.63.65A.62.62,0,0,1,416.82,256.28Zm2.49-.28v-.7H427v.7Z"/><path class="cls-1" d="M426.12,253.3l-.51-.41a3.57,3.57,0,0,0,1-2.44c0-1.21-.71-1.84-1.51-1.84-1,0-1.39,1-1.71,1.88-.41,1.16-.88,2.45-2.2,2.45-1.1,0-2-.88-2-2.48a3.63,3.63,0,0,1,.79-2.19l.51.38a2.94,2.94,0,0,0-.7,1.83c0,1.2.69,1.74,1.4,1.74.88,0,1.21-.9,1.56-1.82.45-1.19.84-2.51,2.34-2.51a2.29,2.29,0,0,1,2.17,2.59A4.39,4.39,0,0,1,426.12,253.3Z"/><path class="cls-1" d="M426.55,243.47c-3.42-3.35-5.32-5-7.1-5a2.06,2.06,0,0,0-2.26,2.23,3.16,3.16,0,0,0,1.33,2.38l-.43.47a3.87,3.87,0,0,1-1.52-2.92,2.67,2.67,0,0,1,2.87-2.89c2,0,4,1.86,7,4.7,0-.57-.07-1.16-.07-1.72v-3.48H427v6.26Z"/><path class="cls-1" d="M429.55,236a13.74,13.74,0,0,0-14,0l-.24-.43a13.44,13.44,0,0,1,14.49,0Z"/><path class="cls-1" d="M193.57,331.69h3.58c2.3,0,4.15.82,4.15,3.35s-1.87,3.54-4.08,3.54h-1.29v3.54h-2.36Zm3.51,5c1.29,0,1.91-.58,1.91-1.67s-.7-1.48-2-1.48h-1.08v3.15Z"/><path class="cls-1" d="M202.11,338.15a3.88,3.88,0,1,1,3.87,4.16A3.89,3.89,0,0,1,202.11,338.15Zm5.33,0c0-1.37-.49-2.26-1.46-2.26s-1.46.89-1.46,2.26.48,2.26,1.46,2.26S207.44,339.53,207.44,338.15Z"/><path class="cls-1" d="M211.32,339.65v-8.74h2.36v8.84c0,.5.23.66.42.66a1.09,1.09,0,0,0,.29,0l.28,1.74a3.1,3.1,0,0,1-1.18.19C211.87,342.31,211.32,341.26,211.32,339.65Z"/><path class="cls-1" d="M215.53,339.92c0-1.67,1.33-2.58,4.48-2.91a1.11,1.11,0,0,0-1.26-1.15,4.33,4.33,0,0,0-2.1.72l-.84-1.55a6.56,6.56,0,0,1,3.39-1c2,0,3.16,1.16,3.16,3.59v4.54h-1.92l-.17-.81h-.06a3.52,3.52,0,0,1-2.31,1A2.28,2.28,0,0,1,215.53,339.92Zm4.48-.11v-1.38c-1.68.22-2.22.7-2.22,1.3s.35.76.91.76A1.79,1.79,0,0,0,220,339.81Z"/><path class="cls-1" d="M224.33,334.18h1.92l.17,1.39h.06a2.68,2.68,0,0,1,2.25-1.58,2.23,2.23,0,0,1,1,.16l-.39,2a3.23,3.23,0,0,0-.86-.13,2,2,0,0,0-1.75,1.47v4.6h-2.35Z"/><path class="cls-1" d="M230.52,331.79a1.37,1.37,0,1,1,1.36,1.23A1.25,1.25,0,0,1,230.52,331.79Zm.18,2.39h2.35v7.94H230.7Z"/><path class="cls-1" d="M234.68,340.86,238,336h-3v-1.85H241v1.26l-3.33,4.83h3.44v1.85h-6.38Z"/><path class="cls-1" d="M241.89,339.92c0-1.67,1.33-2.58,4.47-2.91a1.11,1.11,0,0,0-1.26-1.15,4.36,4.36,0,0,0-2.1.72l-.84-1.55a6.57,6.57,0,0,1,3.4-1c2,0,3.15,1.16,3.15,3.59v4.54h-1.92l-.17-.81h-.06a3.48,3.48,0,0,1-2.31,1A2.28,2.28,0,0,1,241.89,339.92Zm4.47-.11v-1.38c-1.68.22-2.22.7-2.22,1.3s.35.76.91.76A1.79,1.79,0,0,0,246.36,339.81Z"/><path class="cls-1" d="M250.71,339.23V336h-1.08v-1.76l1.21-.09.28-2.11h1.95v2.11H255V336h-1.9v3.17c0,.9.4,1.27,1,1.27a2.5,2.5,0,0,0,.76-.15l.37,1.7a5.39,5.39,0,0,1-1.77.29C251.49,342.31,250.71,341.07,250.71,339.23Z"/><path class="cls-1" d="M256.34,331.79A1.37,1.37,0,1,1,257.7,333,1.25,1.25,0,0,1,256.34,331.79Zm.18,2.39h2.36v7.94h-2.36Z"/><path class="cls-1" d="M260.48,338.15a3.88,3.88,0,1,1,3.87,4.16A3.89,3.89,0,0,1,260.48,338.15Zm5.32,0c0-1.37-.48-2.26-1.45-2.26s-1.46.89-1.46,2.26.48,2.26,1.46,2.26S265.8,339.53,265.8,338.15Z"/><path class="cls-1" d="M269.82,334.18h1.92l.17,1H272a3.6,3.6,0,0,1,2.55-1.19c1.72,0,2.46,1.22,2.46,3.2v4.93h-2.35v-4.63c0-1.14-.31-1.5-1-1.5a2,2,0,0,0-1.47.77v5.36h-2.35Z"/><path class="cls-1" d="M284.31,331.69h2.82l3.28,10.43h-2.5l-1.37-5.28c-.29-1-.56-2.28-.84-3.37h-.07c-.25,1.1-.53,2.32-.82,3.37l-1.37,5.28H281Zm-1.12,6.11h5v1.84h-5Z"/><path class="cls-1" d="M291.34,334.18h1.92l.17,1h.05A3.65,3.65,0,0,1,296,334c1.72,0,2.46,1.22,2.46,3.2v4.93h-2.35v-4.63c0-1.14-.31-1.5-1-1.5a2,2,0,0,0-1.47.77v5.36h-2.35Z"/><path class="cls-1" d="M300,343.48a1.83,1.83,0,0,1,1.13-1.59v-.07a1.55,1.55,0,0,1-.73-1.35,1.91,1.91,0,0,1,.89-1.48v-.07a2.54,2.54,0,0,1-1.07-2.06c0-1.91,1.58-2.87,3.29-2.87a4,4,0,0,1,1.23.19h2.9v1.71h-1.28a2.08,2.08,0,0,1,.27,1.05c0,1.83-1.39,2.67-3.12,2.67a3.27,3.27,0,0,1-1-.16.67.67,0,0,0-.28.6c0,.39.32.58,1.19.58h1.29c1.94,0,3,.59,3,2,0,1.65-1.72,2.85-4.45,2.85C301.48,345.5,300,344.9,300,343.48Zm5.52-.43c0-.5-.43-.62-1.21-.62h-.83a4.24,4.24,0,0,1-1.11-.1,1,1,0,0,0-.43.78c0,.6.7.91,1.76.91S305.52,343.6,305.52,343.05Zm-.93-6.19c0-.85-.46-1.29-1.08-1.29s-1.09.44-1.09,1.29.47,1.32,1.09,1.32S304.59,337.73,304.59,336.86Z"/><path class="cls-1" d="M309,339.65v-8.74h2.36v8.84c0,.5.23.66.42.66a1.09,1.09,0,0,0,.29,0l.28,1.74a3.1,3.1,0,0,1-1.18.19C309.59,342.31,309,341.26,309,339.65Z"/><path class="cls-1" d="M313.15,338.15A3.9,3.9,0,0,1,316.9,334c2.26,0,3.38,1.64,3.38,3.81a5.74,5.74,0,0,1-.1,1h-4.75a1.92,1.92,0,0,0,2.06,1.68,3.31,3.31,0,0,0,1.72-.52l.77,1.42a5.16,5.16,0,0,1-2.81.89A3.87,3.87,0,0,1,313.15,338.15Zm5.12-.87c0-.87-.38-1.5-1.32-1.5a1.58,1.58,0,0,0-1.55,1.5Z"/><path class="cls-1" d="M193.74,356.87a13.3,13.3,0,0,1,2.11-7.24l.44.24a13.72,13.72,0,0,0,0,14l-.44.25A13.36,13.36,0,0,1,193.74,356.87Z"/><path class="cls-1" d="M200.64,350.77h.74l3.72,10.55h-.78l-2.11-6.21c-.43-1.25-.8-2.36-1.17-3.64H201c-.36,1.28-.74,2.39-1.16,3.64l-2.14,6.21h-.74Zm-2,6.31h4.73v.62h-4.73Z"/><path class="cls-1" d="M208,357.3l-2.39-3.67h.78l1.24,2c.25.42.53.84.81,1.26h.07c.27-.42.52-.84.8-1.26l1.19-2h.74l-2.39,3.73,2.61,4h-.79l-1.36-2.1c-.28-.48-.59-1-.9-1.4h-.07c-.3.44-.58.92-.89,1.4l-1.31,2.1h-.75Z"/><path class="cls-1" d="M212.91,351.15a.65.65,0,0,1,1.29,0,.65.65,0,0,1-1.29,0Zm.28,2.48h.7v7.69h-.7Z"/><path class="cls-1" d="M215.89,360.45l.41-.52a3.54,3.54,0,0,0,2.45,1c1.21,0,1.83-.71,1.83-1.52s-1-1.39-1.88-1.71c-1.16-.41-2.45-.88-2.45-2.19,0-1.11.88-2.05,2.48-2.05a3.6,3.6,0,0,1,2.2.8l-.38.51a2.93,2.93,0,0,0-1.84-.7c-1.2,0-1.74.69-1.74,1.4,0,.87.91,1.21,1.82,1.55,1.19.45,2.51.85,2.51,2.35,0,1.15-.92,2.16-2.59,2.16A4.38,4.38,0,0,1,215.89,360.45Z"/><path class="cls-1" d="M226.4,360.7h2.41v-8.48H227v-.49a5.83,5.83,0,0,0,2-.64h.57v9.61h2.23v.62H226.4Z"/><path class="cls-1" d="M233.23,363.87a13.66,13.66,0,0,0,0-14l.44-.24a13.49,13.49,0,0,1,0,14.49Z"/><rect class="cls-4" x="361.46" y="298.04" width="20" height="20"/><path class="cls-1" d="M368.13,312.59c3.35-3.42,5-5.32,5-7.1a2.06,2.06,0,0,0-2.23-2.26,3.16,3.16,0,0,0-2.38,1.33l-.46-.43a3.83,3.83,0,0,1,2.91-1.52,2.67,2.67,0,0,1,2.89,2.87c0,2-1.86,4-4.7,7,.57,0,1.16-.07,1.72-.07h3.49V313h-6.27Z"/><rect class="cls-4" x="361.46" y="278.04" width="20" height="20"/><path class="cls-1" d="M368.13,292.59c3.35-3.42,5-5.32,5-7.1a2.06,2.06,0,0,0-2.23-2.26,3.16,3.16,0,0,0-2.38,1.33l-.46-.43a3.83,3.83,0,0,1,2.91-1.52,2.67,2.67,0,0,1,2.89,2.87c0,2-1.86,4-4.7,7,.57,0,1.16-.07,1.72-.07h3.49V293h-6.27Z"/><rect class="cls-4" x="341.46" y="298.04" width="20" height="20"/><path class="cls-1" d="M352.42,305.63c0-.47,0-1.3.07-1.77h-.06c-.26.44-.55.81-.84,1.28l-3,4.23h6V310h-6.9v-.42l4.75-6.76h.63V313h-.69Z"/><rect class="cls-4" x="341.46" y="278.04" width="20" height="20"/><path class="cls-1" d="M347.87,291.84l.41-.49a3.59,3.59,0,0,0,2.8,1.25,2.59,2.59,0,0,0,2.54-2.75,2.39,2.39,0,0,0-2.5-2.64,3.12,3.12,0,0,0-1.89.68l-.5-.3.37-4.79h4.73v.63h-4.09l-.33,3.7a3.32,3.32,0,0,1,1.83-.54,2.92,2.92,0,0,1,3.12,3.22,3.26,3.26,0,0,1-3.27,3.42A4.26,4.26,0,0,1,347.87,291.84Z"/><rect class="cls-4" x="361.46" y="258.04" width="20" height="20"/><path class="cls-1" d="M367.87,271.84l.41-.49a3.59,3.59,0,0,0,2.8,1.25,2.59,2.59,0,0,0,2.54-2.75,2.39,2.39,0,0,0-2.5-2.64,3.12,3.12,0,0,0-1.89.68l-.5-.3.37-4.79h4.73v.63h-4.09l-.33,3.7a3.32,3.32,0,0,1,1.83-.54,2.92,2.92,0,0,1,3.12,3.22,3.26,3.26,0,0,1-3.27,3.42A4.26,4.26,0,0,1,367.87,271.84Z"/><rect class="cls-4" x="361.46" y="238.04" width="20" height="20"/><path class="cls-1" d="M367.87,251.84l.41-.49a3.59,3.59,0,0,0,2.8,1.25,2.59,2.59,0,0,0,2.54-2.75,2.39,2.39,0,0,0-2.5-2.64,3.12,3.12,0,0,0-1.89.68l-.5-.3.37-4.79h4.73v.63h-4.09l-.33,3.7a3.32,3.32,0,0,1,1.83-.54,2.92,2.92,0,0,1,3.12,3.22,3.26,3.26,0,0,1-3.27,3.42A4.26,4.26,0,0,1,367.87,251.84Z"/><rect class="cls-4" x="341.46" y="258.04" width="20" height="20"/><path class="cls-1" d="M347.87,271.84l.41-.49a3.59,3.59,0,0,0,2.8,1.25,2.59,2.59,0,0,0,2.54-2.75,2.39,2.39,0,0,0-2.5-2.64,3.12,3.12,0,0,0-1.89.68l-.5-.3.37-4.79h4.73v.63h-4.09l-.33,3.7a3.32,3.32,0,0,1,1.83-.54,2.92,2.92,0,0,1,3.12,3.22,3.26,3.26,0,0,1-3.27,3.42A4.26,4.26,0,0,1,347.87,271.84Z"/><rect class="cls-4" x="341.46" y="238.04" width="20" height="20"/><path class="cls-1" d="M347.87,251.84l.41-.49a3.59,3.59,0,0,0,2.8,1.25,2.59,2.59,0,0,0,2.54-2.75,2.39,2.39,0,0,0-2.5-2.64,3.12,3.12,0,0,0-1.89.68l-.5-.3.37-4.79h4.73v.63h-4.09l-.33,3.7a3.32,3.32,0,0,1,1.83-.54,2.92,2.92,0,0,1,3.12,3.22,3.26,3.26,0,0,1-3.27,3.42A4.26,4.26,0,0,1,347.87,251.84Z"/><rect class="cls-4" x="321.46" y="258.04" width="20" height="20"/><path class="cls-1" d="M327.93,271.79l.41-.49a3.62,3.62,0,0,0,2.83,1.3,2.22,2.22,0,0,0,2.4-2.25c0-1.41-1-2.37-3.57-2.37v-.63c2.36,0,3.19-1,3.19-2.22a1.87,1.87,0,0,0-2.07-1.9,3.27,3.27,0,0,0-2.34,1.12l-.42-.49a3.92,3.92,0,0,1,2.78-1.25,2.5,2.5,0,0,1,2.78,2.47,2.59,2.59,0,0,1-1.94,2.53v.06a2.73,2.73,0,0,1,2.32,2.67,2.89,2.89,0,0,1-3.13,2.89A4.2,4.2,0,0,1,327.93,271.79Z"/><rect class="cls-4" x="321.46" y="238.04" width="20" height="20"/><path class="cls-1" d="M327.87,251.84l.41-.49a3.59,3.59,0,0,0,2.8,1.25,2.59,2.59,0,0,0,2.54-2.75,2.39,2.39,0,0,0-2.5-2.64,3.12,3.12,0,0,0-1.89.68l-.5-.3.37-4.79h4.73v.63h-4.09l-.33,3.7a3.32,3.32,0,0,1,1.83-.54,2.92,2.92,0,0,1,3.12,3.22,3.26,3.26,0,0,1-3.27,3.42A4.26,4.26,0,0,1,327.87,251.84Z"/><rect class="cls-4" x="301.46" y="258.04" width="20" height="20"/><path class="cls-1" d="M307.87,271.84l.41-.49a3.59,3.59,0,0,0,2.8,1.25,2.59,2.59,0,0,0,2.54-2.75,2.39,2.39,0,0,0-2.5-2.64,3.12,3.12,0,0,0-1.89.68l-.5-.3.37-4.79h4.73v.63h-4.09l-.33,3.7a3.32,3.32,0,0,1,1.83-.54,2.92,2.92,0,0,1,3.12,3.22,3.26,3.26,0,0,1-3.27,3.42A4.26,4.26,0,0,1,307.87,271.84Z"/><rect class="cls-4" x="301.46" y="238.04" width="20" height="20"/><path class="cls-1" d="M307.87,251.84l.41-.49a3.59,3.59,0,0,0,2.8,1.25,2.59,2.59,0,0,0,2.54-2.75,2.39,2.39,0,0,0-2.5-2.64,3.12,3.12,0,0,0-1.89.68l-.5-.3.37-4.79h4.73v.63h-4.09l-.33,3.7a3.32,3.32,0,0,1,1.83-.54,2.92,2.92,0,0,1,3.12,3.22,3.26,3.26,0,0,1-3.27,3.42A4.26,4.26,0,0,1,307.87,251.84Z"/><rect class="cls-4" x="321.46" y="298.04" width="20" height="20"/><path class="cls-1" d="M327.87,311.84l.41-.49a3.59,3.59,0,0,0,2.8,1.25,2.59,2.59,0,0,0,2.54-2.75,2.39,2.39,0,0,0-2.5-2.64,3.12,3.12,0,0,0-1.89.68l-.5-.3.37-4.79h4.73v.63h-4.09l-.33,3.7a3.32,3.32,0,0,1,1.83-.54,2.92,2.92,0,0,1,3.12,3.22,3.26,3.26,0,0,1-3.27,3.42A4.26,4.26,0,0,1,327.87,311.84Z"/><rect class="cls-4" x="321.46" y="278.04" width="20" height="20"/><path class="cls-1" d="M328.13,292.59c3.35-3.42,5-5.32,5-7.1a2.06,2.06,0,0,0-2.23-2.26,3.16,3.16,0,0,0-2.38,1.33l-.46-.43a3.83,3.83,0,0,1,2.91-1.52,2.67,2.67,0,0,1,2.89,2.87c0,2-1.86,4-4.7,7,.57,0,1.16-.07,1.72-.07h3.49V293h-6.27Z"/><rect class="cls-4" x="301.46" y="298.04" width="20" height="20"/><path class="cls-1" d="M307.87,311.84l.41-.49a3.59,3.59,0,0,0,2.8,1.25,2.59,2.59,0,0,0,2.54-2.75,2.39,2.39,0,0,0-2.5-2.64,3.12,3.12,0,0,0-1.89.68l-.5-.3.37-4.79h4.73v.63h-4.09l-.33,3.7a3.32,3.32,0,0,1,1.83-.54,2.92,2.92,0,0,1,3.12,3.22,3.26,3.26,0,0,1-3.27,3.42A4.26,4.26,0,0,1,307.87,311.84Z"/><rect class="cls-4" x="301.46" y="278.04" width="20" height="20"/><path class="cls-1" d="M307.87,291.84l.41-.49a3.59,3.59,0,0,0,2.8,1.25,2.59,2.59,0,0,0,2.54-2.75,2.39,2.39,0,0,0-2.5-2.64,3.12,3.12,0,0,0-1.89.68l-.5-.3.37-4.79h4.73v.63h-4.09l-.33,3.7a3.32,3.32,0,0,1,1.83-.54,2.92,2.92,0,0,1,3.12,3.22,3.26,3.26,0,0,1-3.27,3.42A4.26,4.26,0,0,1,307.87,291.84Z"/><rect class="cls-4" x="361.46" y="217.04" width="20" height="20"/><path class="cls-1" d="M367.93,230.79l.41-.49a3.62,3.62,0,0,0,2.83,1.3,2.22,2.22,0,0,0,2.4-2.25c0-1.41-1-2.37-3.57-2.37v-.63c2.36,0,3.19-1,3.19-2.22a1.87,1.87,0,0,0-2.07-1.9,3.27,3.27,0,0,0-2.34,1.12l-.42-.49a3.92,3.92,0,0,1,2.78-1.25,2.5,2.5,0,0,1,2.78,2.47,2.59,2.59,0,0,1-1.94,2.53v.06a2.73,2.73,0,0,1,2.32,2.67,2.89,2.89,0,0,1-3.13,2.89A4.2,4.2,0,0,1,367.93,230.79Z"/><rect class="cls-4" x="361.46" y="195.04" width="20" height="20"/><path class="cls-1" d="M367.93,208.79l.41-.49a3.62,3.62,0,0,0,2.83,1.3,2.22,2.22,0,0,0,2.4-2.25c0-1.41-1-2.37-3.57-2.37v-.63c2.36,0,3.19-1,3.19-2.22a1.87,1.87,0,0,0-2.07-1.9,3.27,3.27,0,0,0-2.34,1.12l-.42-.49a3.92,3.92,0,0,1,2.78-1.25,2.5,2.5,0,0,1,2.78,2.47,2.59,2.59,0,0,1-1.94,2.53v.06a2.73,2.73,0,0,1,2.32,2.67,2.89,2.89,0,0,1-3.13,2.89A4.2,4.2,0,0,1,367.93,208.79Z"/><rect class="cls-4" x="341.46" y="217.04" width="20" height="20"/><path class="cls-1" d="M347.87,230.84l.41-.49a3.59,3.59,0,0,0,2.8,1.25,2.59,2.59,0,0,0,2.54-2.75,2.39,2.39,0,0,0-2.5-2.64,3.12,3.12,0,0,0-1.89.68l-.5-.3.37-4.79h4.73v.63h-4.09l-.33,3.7a3.32,3.32,0,0,1,1.83-.54,2.92,2.92,0,0,1,3.12,3.22,3.26,3.26,0,0,1-3.27,3.42A4.26,4.26,0,0,1,347.87,230.84Z"/><rect class="cls-4" x="341.46" y="195.04" width="20" height="20"/><path class="cls-1" d="M347.93,208.79l.41-.49a3.62,3.62,0,0,0,2.83,1.3,2.22,2.22,0,0,0,2.4-2.25c0-1.41-1-2.37-3.57-2.37v-.63c2.36,0,3.19-1,3.19-2.22a1.87,1.87,0,0,0-2.07-1.9,3.27,3.27,0,0,0-2.34,1.12l-.42-.49a3.92,3.92,0,0,1,2.78-1.25,2.5,2.5,0,0,1,2.78,2.47,2.59,2.59,0,0,1-1.94,2.53v.06a2.73,2.73,0,0,1,2.32,2.67,2.89,2.89,0,0,1-3.13,2.89A4.2,4.2,0,0,1,347.93,208.79Z"/><rect class="cls-4" x="361.46" y="172.04" width="20" height="20"/><path class="cls-1" d="M367.87,185.84l.41-.49a3.59,3.59,0,0,0,2.8,1.25,2.59,2.59,0,0,0,2.54-2.75,2.39,2.39,0,0,0-2.5-2.64,3.12,3.12,0,0,0-1.89.68l-.5-.3.37-4.79h4.73v.63h-4.09l-.33,3.7a3.32,3.32,0,0,1,1.83-.54,2.92,2.92,0,0,1,3.12,3.22,3.26,3.26,0,0,1-3.27,3.42A4.26,4.26,0,0,1,367.87,185.84Z"/><rect class="cls-4" x="361.46" y="148.04" width="20" height="20"/><path class="cls-1" d="M372.42,155.63c0-.47,0-1.3.07-1.77h-.06c-.26.44-.55.81-.84,1.28l-3,4.23h6V160h-6.9v-.42l4.75-6.76h.63V163h-.69Z"/><rect class="cls-4" x="341.46" y="172.04" width="20" height="20"/><path class="cls-1" d="M347.87,185.84l.41-.49a3.59,3.59,0,0,0,2.8,1.25,2.59,2.59,0,0,0,2.54-2.75,2.39,2.39,0,0,0-2.5-2.64,3.12,3.12,0,0,0-1.89.68l-.5-.3.37-4.79h4.73v.63h-4.09l-.33,3.7a3.32,3.32,0,0,1,1.83-.54,2.92,2.92,0,0,1,3.12,3.22,3.26,3.26,0,0,1-3.27,3.42A4.26,4.26,0,0,1,347.87,185.84Z"/><rect class="cls-4" x="341.46" y="148.04" width="20" height="20"/><path class="cls-1" d="M352.42,155.63c0-.47,0-1.3.07-1.77h-.06c-.26.44-.55.81-.84,1.28l-3,4.23h6V160h-6.9v-.42l4.75-6.76h.63V163h-.69Z"/><rect class="cls-4" x="321.46" y="172.04" width="20" height="20"/><path class="cls-1" d="M327.87,185.84l.41-.49a3.59,3.59,0,0,0,2.8,1.25,2.59,2.59,0,0,0,2.54-2.75,2.39,2.39,0,0,0-2.5-2.64,3.12,3.12,0,0,0-1.89.68l-.5-.3.37-4.79h4.73v.63h-4.09l-.33,3.7a3.32,3.32,0,0,1,1.83-.54,2.92,2.92,0,0,1,3.12,3.22,3.26,3.26,0,0,1-3.27,3.42A4.26,4.26,0,0,1,327.87,185.84Z"/><rect class="cls-4" x="321.46" y="148.04" width="20" height="20"/><path class="cls-1" d="M327.87,161.84l.41-.49a3.59,3.59,0,0,0,2.8,1.25,2.59,2.59,0,0,0,2.54-2.75,2.39,2.39,0,0,0-2.5-2.64,3.12,3.12,0,0,0-1.89.68l-.5-.3.37-4.79h4.73v.63h-4.09l-.33,3.7a3.32,3.32,0,0,1,1.83-.54,2.92,2.92,0,0,1,3.12,3.22,3.26,3.26,0,0,1-3.27,3.42A4.26,4.26,0,0,1,327.87,161.84Z"/><rect class="cls-4" x="301.46" y="172.04" width="20" height="20"/><path class="cls-1" d="M307.87,185.84l.41-.49a3.59,3.59,0,0,0,2.8,1.25,2.59,2.59,0,0,0,2.54-2.75,2.39,2.39,0,0,0-2.5-2.64,3.12,3.12,0,0,0-1.89.68l-.5-.3.37-4.79h4.73v.63h-4.09l-.33,3.7a3.32,3.32,0,0,1,1.83-.54,2.92,2.92,0,0,1,3.12,3.22,3.26,3.26,0,0,1-3.27,3.42A4.26,4.26,0,0,1,307.87,185.84Z"/><rect class="cls-4" x="301.46" y="148.04" width="20" height="20"/><path class="cls-1" d="M307.93,161.79l.41-.49a3.62,3.62,0,0,0,2.83,1.3,2.22,2.22,0,0,0,2.4-2.25c0-1.41-1-2.37-3.57-2.37v-.63c2.36,0,3.19-1,3.19-2.22a1.87,1.87,0,0,0-2.07-1.9,3.27,3.27,0,0,0-2.34,1.12l-.42-.49a3.92,3.92,0,0,1,2.78-1.25,2.5,2.5,0,0,1,2.78,2.47,2.59,2.59,0,0,1-1.94,2.53v.06a2.73,2.73,0,0,1,2.32,2.67,2.89,2.89,0,0,1-3.13,2.89A4.2,4.2,0,0,1,307.93,161.79Z"/><rect class="cls-4" x="321.46" y="217.04" width="20" height="20"/><path class="cls-1" d="M328.3,227.4c0-4.29,1.79-5.79,3.77-5.79a2.81,2.81,0,0,1,2.16,1l-.44.48a2.22,2.22,0,0,0-1.73-.85c-1.64,0-3.05,1.32-3.05,5.17,0,2.5.83,4.22,2.65,4.22a2.33,2.33,0,0,0,2.07-2.59c0-1.48-.66-2.57-2.22-2.57a3.34,3.34,0,0,0-2.55,1.65v-.75a3.51,3.51,0,0,1,2.65-1.5c1.78,0,2.84,1.11,2.84,3.17a3,3,0,0,1-2.8,3.2C329.6,232.23,328.3,230.5,328.3,227.4Z"/><rect class="cls-4" x="321.46" y="195.04" width="20" height="20"/><path class="cls-1" d="M327.87,208.84l.41-.49a3.59,3.59,0,0,0,2.8,1.25,2.59,2.59,0,0,0,2.54-2.75,2.39,2.39,0,0,0-2.5-2.64,3.12,3.12,0,0,0-1.89.68l-.5-.3.37-4.79h4.73v.63h-4.09l-.33,3.7a3.32,3.32,0,0,1,1.83-.54,2.92,2.92,0,0,1,3.12,3.22,3.26,3.26,0,0,1-3.27,3.42A4.26,4.26,0,0,1,327.87,208.84Z"/><rect class="cls-4" x="301.46" y="217.04" width="20" height="20"/><path class="cls-1" d="M307.93,230.79l.41-.49a3.62,3.62,0,0,0,2.83,1.3,2.22,2.22,0,0,0,2.4-2.25c0-1.41-1-2.37-3.57-2.37v-.63c2.36,0,3.19-1,3.19-2.22a1.87,1.87,0,0,0-2.07-1.9,3.27,3.27,0,0,0-2.34,1.12l-.42-.49a3.92,3.92,0,0,1,2.78-1.25,2.5,2.5,0,0,1,2.78,2.47,2.59,2.59,0,0,1-1.94,2.53v.06a2.73,2.73,0,0,1,2.32,2.67,2.89,2.89,0,0,1-3.13,2.89A4.2,4.2,0,0,1,307.93,230.79Z"/><rect class="cls-4" x="301.46" y="195.04" width="20" height="20"/><path class="cls-1" d="M307.87,208.84l.41-.49a3.59,3.59,0,0,0,2.8,1.25,2.59,2.59,0,0,0,2.54-2.75,2.39,2.39,0,0,0-2.5-2.64,3.12,3.12,0,0,0-1.89.68l-.5-.3.37-4.79h4.73v.63h-4.09l-.33,3.7a3.32,3.32,0,0,1,1.83-.54,2.92,2.92,0,0,1,3.12,3.22,3.26,3.26,0,0,1-3.27,3.42A4.26,4.26,0,0,1,307.87,208.84Z"/><rect class="cls-4" x="280.46" y="298.04" width="20" height="20"/><path class="cls-1" d="M287.3,308.4c0-4.29,1.79-5.79,3.77-5.79a2.81,2.81,0,0,1,2.16,1l-.44.48a2.22,2.22,0,0,0-1.73-.85c-1.64,0-3.05,1.32-3.05,5.17,0,2.5.83,4.22,2.65,4.22a2.33,2.33,0,0,0,2.07-2.59c0-1.48-.66-2.57-2.22-2.57a3.34,3.34,0,0,0-2.55,1.65v-.75a3.51,3.51,0,0,1,2.65-1.5c1.78,0,2.84,1.11,2.84,3.17a3,3,0,0,1-2.8,3.2C288.6,313.23,287.3,311.5,287.3,308.4Z"/><rect class="cls-4" x="280.46" y="278.04" width="20" height="20"/><path class="cls-1" d="M286.87,291.84l.41-.49a3.59,3.59,0,0,0,2.8,1.25,2.59,2.59,0,0,0,2.54-2.75,2.39,2.39,0,0,0-2.5-2.64,3.12,3.12,0,0,0-1.89.68l-.5-.3.37-4.79h4.73v.63h-4.09l-.33,3.7a3.32,3.32,0,0,1,1.83-.54,2.92,2.92,0,0,1,3.12,3.22,3.26,3.26,0,0,1-3.27,3.42A4.26,4.26,0,0,1,286.87,291.84Z"/><rect class="cls-4" x="258.46" y="298.04" width="20" height="20"/><path class="cls-1" d="M264.87,311.84l.41-.49a3.59,3.59,0,0,0,2.8,1.25,2.59,2.59,0,0,0,2.54-2.75,2.39,2.39,0,0,0-2.5-2.64,3.12,3.12,0,0,0-1.89.68l-.5-.3.37-4.79h4.73v.63h-4.09l-.33,3.7a3.32,3.32,0,0,1,1.83-.54,2.92,2.92,0,0,1,3.12,3.22,3.26,3.26,0,0,1-3.27,3.42A4.26,4.26,0,0,1,264.87,311.84Z"/><rect class="cls-4" x="258.46" y="278.04" width="20" height="20"/><path class="cls-1" d="M265.3,288.4c0-4.29,1.79-5.79,3.77-5.79a2.81,2.81,0,0,1,2.16,1l-.44.48a2.22,2.22,0,0,0-1.73-.85c-1.64,0-3.05,1.32-3.05,5.17,0,2.5.83,4.22,2.65,4.22a2.33,2.33,0,0,0,2.07-2.59c0-1.48-.66-2.57-2.22-2.57a3.34,3.34,0,0,0-2.55,1.65v-.75a3.51,3.51,0,0,1,2.65-1.5c1.78,0,2.84,1.11,2.84,3.17a3,3,0,0,1-2.8,3.2C266.6,293.23,265.3,291.5,265.3,288.4Z"/><rect class="cls-4" x="280.46" y="258.04" width="20" height="20"/><path class="cls-1" d="M291.42,265.63c0-.47,0-1.3.07-1.77h-.06c-.26.44-.55.81-.84,1.28l-3,4.23h6V270h-6.9v-.42l4.75-6.76h.63V273h-.69Z"/><rect class="cls-4" x="280.46" y="238.04" width="20" height="20"/><path class="cls-1" d="M286.87,251.84l.41-.49a3.59,3.59,0,0,0,2.8,1.25,2.59,2.59,0,0,0,2.54-2.75,2.39,2.39,0,0,0-2.5-2.64,3.12,3.12,0,0,0-1.89.68l-.5-.3.37-4.79h4.73v.63h-4.09l-.33,3.7a3.32,3.32,0,0,1,1.83-.54,2.92,2.92,0,0,1,3.12,3.22,3.26,3.26,0,0,1-3.27,3.42A4.26,4.26,0,0,1,286.87,251.84Z"/><rect class="cls-4" x="258.46" y="258.04" width="20" height="20"/><path class="cls-1" d="M264.87,271.84l.41-.49a3.59,3.59,0,0,0,2.8,1.25,2.59,2.59,0,0,0,2.54-2.75,2.39,2.39,0,0,0-2.5-2.64,3.12,3.12,0,0,0-1.89.68l-.5-.3.37-4.79h4.73v.63h-4.09l-.33,3.7a3.32,3.32,0,0,1,1.83-.54,2.92,2.92,0,0,1,3.12,3.22,3.26,3.26,0,0,1-3.27,3.42A4.26,4.26,0,0,1,264.87,271.84Z"/><rect class="cls-4" x="258.46" y="238.04" width="20" height="20"/><path class="cls-1" d="M264.87,251.84l.41-.49a3.59,3.59,0,0,0,2.8,1.25,2.59,2.59,0,0,0,2.54-2.75,2.39,2.39,0,0,0-2.5-2.64,3.12,3.12,0,0,0-1.89.68l-.5-.3.37-4.79h4.73v.63h-4.09l-.33,3.7a3.32,3.32,0,0,1,1.83-.54,2.92,2.92,0,0,1,3.12,3.22,3.26,3.26,0,0,1-3.27,3.42A4.26,4.26,0,0,1,264.87,251.84Z"/><rect class="cls-4" x="235.46" y="258.04" width="20" height="20"/><path class="cls-1" d="M241.87,271.84l.41-.49a3.59,3.59,0,0,0,2.8,1.25,2.59,2.59,0,0,0,2.54-2.75,2.39,2.39,0,0,0-2.5-2.64,3.12,3.12,0,0,0-1.89.68l-.5-.3.37-4.79h4.73v.63h-4.09l-.33,3.7a3.32,3.32,0,0,1,1.83-.54,2.92,2.92,0,0,1,3.12,3.22,3.26,3.26,0,0,1-3.27,3.42A4.26,4.26,0,0,1,241.87,271.84Z"/><rect class="cls-4" x="235.46" y="238.04" width="20" height="20"/><path class="cls-1" d="M246.42,245.63c0-.47,0-1.3.07-1.77h-.06c-.26.44-.55.81-.84,1.28l-3,4.23h6V250h-6.9v-.42l4.75-6.76h.63V253h-.69Z"/><rect class="cls-4" x="211.46" y="258.04" width="20" height="20"/><path class="cls-1" d="M217.87,271.84l.41-.49a3.59,3.59,0,0,0,2.8,1.25,2.59,2.59,0,0,0,2.54-2.75,2.39,2.39,0,0,0-2.5-2.64,3.12,3.12,0,0,0-1.89.68l-.5-.3.37-4.79h4.73v.63h-4.09l-.33,3.7a3.32,3.32,0,0,1,1.83-.54,2.92,2.92,0,0,1,3.12,3.22,3.26,3.26,0,0,1-3.27,3.42A4.26,4.26,0,0,1,217.87,271.84Z"/><rect class="cls-4" x="211.46" y="238.04" width="20" height="20"/><path class="cls-1" d="M217.87,251.84l.41-.49a3.59,3.59,0,0,0,2.8,1.25,2.59,2.59,0,0,0,2.54-2.75,2.39,2.39,0,0,0-2.5-2.64,3.12,3.12,0,0,0-1.89.68l-.5-.3.37-4.79h4.73v.63h-4.09l-.33,3.7a3.32,3.32,0,0,1,1.83-.54,2.92,2.92,0,0,1,3.12,3.22,3.26,3.26,0,0,1-3.27,3.42A4.26,4.26,0,0,1,217.87,251.84Z"/><rect class="cls-4" x="235.46" y="298.04" width="20" height="20"/><path class="cls-1" d="M242.11,310.41a3.5,3.5,0,0,1,2-2.89v-.06a2.85,2.85,0,0,1-1.46-2.34,2.53,2.53,0,0,1,2.67-2.51,2.56,2.56,0,0,1,2.77,2.67,3.72,3.72,0,0,1-1.46,2.61V308a3,3,0,0,1,1.79,2.6,2.82,2.82,0,0,1-3.11,2.68A3,3,0,0,1,242.11,310.41Zm5.63.13c0-1.57-1.54-2.12-3.13-2.75a3.15,3.15,0,0,0-1.81,2.59,2.37,2.37,0,0,0,2.56,2.26A2.17,2.17,0,0,0,247.74,310.54Zm-.3-5.24a2,2,0,0,0-2.09-2.1,1.88,1.88,0,0,0-2,1.92c0,1.45,1.38,2,2.71,2.56A3.1,3.1,0,0,0,247.44,305.3Z"/><rect class="cls-4" x="235.46" y="278.04" width="20" height="20"/><path class="cls-1" d="M241.87,291.84l.41-.49a3.59,3.59,0,0,0,2.8,1.25,2.59,2.59,0,0,0,2.54-2.75,2.39,2.39,0,0,0-2.5-2.64,3.12,3.12,0,0,0-1.89.68l-.5-.3.37-4.79h4.73v.63h-4.09l-.33,3.7a3.32,3.32,0,0,1,1.83-.54,2.92,2.92,0,0,1,3.12,3.22,3.26,3.26,0,0,1-3.27,3.42A4.26,4.26,0,0,1,241.87,291.84Z"/><rect class="cls-4" x="211.46" y="298.04" width="20" height="20"/><path class="cls-1" d="M218.3,308.4c0-4.29,1.79-5.79,3.77-5.79a2.81,2.81,0,0,1,2.16,1l-.44.48a2.22,2.22,0,0,0-1.73-.85c-1.64,0-3.05,1.32-3.05,5.17,0,2.5.83,4.22,2.65,4.22a2.33,2.33,0,0,0,2.07-2.59c0-1.48-.66-2.57-2.22-2.57a3.34,3.34,0,0,0-2.55,1.65v-.75a3.51,3.51,0,0,1,2.65-1.5c1.78,0,2.84,1.11,2.84,3.17a3,3,0,0,1-2.8,3.2C219.6,313.23,218.3,311.5,218.3,308.4Z"/><rect class="cls-4" x="211.46" y="278.04" width="20" height="20"/><path class="cls-1" d="M217.87,291.84l.41-.49a3.59,3.59,0,0,0,2.8,1.25,2.59,2.59,0,0,0,2.54-2.75,2.39,2.39,0,0,0-2.5-2.64,3.12,3.12,0,0,0-1.89.68l-.5-.3.37-4.79h4.73v.63h-4.09l-.33,3.7a3.32,3.32,0,0,1,1.83-.54,2.92,2.92,0,0,1,3.12,3.22,3.26,3.26,0,0,1-3.27,3.42A4.26,4.26,0,0,1,217.87,291.84Z"/><rect class="cls-4" x="280.46" y="217.04" width="20" height="20"/><path class="cls-1" d="M286.87,230.84l.41-.49a3.59,3.59,0,0,0,2.8,1.25,2.59,2.59,0,0,0,2.54-2.75,2.39,2.39,0,0,0-2.5-2.64,3.12,3.12,0,0,0-1.89.68l-.5-.3.37-4.79h4.73v.63h-4.09l-.33,3.7a3.32,3.32,0,0,1,1.83-.54,2.92,2.92,0,0,1,3.12,3.22,3.26,3.26,0,0,1-3.27,3.42A4.26,4.26,0,0,1,286.87,230.84Z"/><rect class="cls-4" x="280.46" y="195.04" width="20" height="20"/><path class="cls-1" d="M287.13,209.59c3.35-3.42,5-5.32,5-7.1a2.06,2.06,0,0,0-2.23-2.26,3.16,3.16,0,0,0-2.38,1.33l-.46-.43a3.83,3.83,0,0,1,2.91-1.52,2.67,2.67,0,0,1,2.89,2.87c0,2-1.86,4-4.7,7,.57,0,1.16-.07,1.72-.07h3.49V210h-6.27Z"/><rect class="cls-4" x="258.46" y="217.04" width="20" height="20"/><path class="cls-1" d="M264.93,230.79l.41-.49a3.62,3.62,0,0,0,2.83,1.3,2.22,2.22,0,0,0,2.4-2.25c0-1.41-1-2.37-3.57-2.37v-.63c2.36,0,3.19-1,3.19-2.22a1.87,1.87,0,0,0-2.07-1.9,3.27,3.27,0,0,0-2.34,1.12l-.42-.49a3.92,3.92,0,0,1,2.78-1.25,2.5,2.5,0,0,1,2.78,2.47,2.59,2.59,0,0,1-1.94,2.53v.06a2.73,2.73,0,0,1,2.32,2.67,2.89,2.89,0,0,1-3.13,2.89A4.2,4.2,0,0,1,264.93,230.79Z"/><rect class="cls-4" x="258.46" y="195.04" width="20" height="20"/><path class="cls-1" d="M265.13,209.59c3.35-3.42,5-5.32,5-7.1a2.06,2.06,0,0,0-2.23-2.26,3.16,3.16,0,0,0-2.38,1.33l-.46-.43a3.83,3.83,0,0,1,2.91-1.52,2.67,2.67,0,0,1,2.89,2.87c0,2-1.86,4-4.7,7,.57,0,1.16-.07,1.72-.07h3.49V210h-6.27Z"/><rect class="cls-4" x="280.46" y="172.04" width="20" height="20"/><path class="cls-1" d="M287.13,186.59c3.35-3.42,5-5.32,5-7.1a2.06,2.06,0,0,0-2.23-2.26,3.16,3.16,0,0,0-2.38,1.33l-.46-.43a3.83,3.83,0,0,1,2.91-1.52,2.67,2.67,0,0,1,2.89,2.87c0,2-1.86,4-4.7,7,.57,0,1.16-.07,1.72-.07h3.49V187h-6.27Z"/><rect class="cls-4" x="280.46" y="148.04" width="20" height="20"/><path class="cls-1" d="M286.87,161.84l.41-.49a3.59,3.59,0,0,0,2.8,1.25,2.59,2.59,0,0,0,2.54-2.75,2.39,2.39,0,0,0-2.5-2.64,3.12,3.12,0,0,0-1.89.68l-.5-.3.37-4.79h4.73v.63h-4.09l-.33,3.7a3.32,3.32,0,0,1,1.83-.54,2.92,2.92,0,0,1,3.12,3.22,3.26,3.26,0,0,1-3.27,3.42A4.26,4.26,0,0,1,286.87,161.84Z"/><rect class="cls-4" x="258.46" y="172.04" width="20" height="20"/><path class="cls-1" d="M265.13,186.59c3.35-3.42,5-5.32,5-7.1a2.06,2.06,0,0,0-2.23-2.26,3.16,3.16,0,0,0-2.38,1.33l-.46-.43a3.83,3.83,0,0,1,2.91-1.52,2.67,2.67,0,0,1,2.89,2.87c0,2-1.86,4-4.7,7,.57,0,1.16-.07,1.72-.07h3.49V187h-6.27Z"/><rect class="cls-4" x="258.46" y="148.04" width="20" height="20"/><path class="cls-1" d="M265.3,158.4c0-4.29,1.79-5.79,3.77-5.79a2.81,2.81,0,0,1,2.16,1l-.44.48a2.22,2.22,0,0,0-1.73-.85c-1.64,0-3.05,1.32-3.05,5.17,0,2.5.83,4.22,2.65,4.22a2.33,2.33,0,0,0,2.07-2.59c0-1.48-.66-2.57-2.22-2.57a3.34,3.34,0,0,0-2.55,1.65v-.75a3.51,3.51,0,0,1,2.65-1.5c1.78,0,2.84,1.11,2.84,3.17a3,3,0,0,1-2.8,3.2C266.6,163.23,265.3,161.5,265.3,158.4Z"/><rect class="cls-4" x="235.46" y="172.04" width="20" height="20"/><path class="cls-1" d="M241.87,185.84l.41-.49a3.59,3.59,0,0,0,2.8,1.25,2.59,2.59,0,0,0,2.54-2.75,2.39,2.39,0,0,0-2.5-2.64,3.12,3.12,0,0,0-1.89.68l-.5-.3.37-4.79h4.73v.63h-4.09l-.33,3.7a3.32,3.32,0,0,1,1.83-.54,2.92,2.92,0,0,1,3.12,3.22,3.26,3.26,0,0,1-3.27,3.42A4.26,4.26,0,0,1,241.87,185.84Z"/><rect class="cls-4" x="235.46" y="148.04" width="20" height="20"/><path class="cls-1" d="M241.87,161.84l.41-.49a3.59,3.59,0,0,0,2.8,1.25,2.59,2.59,0,0,0,2.54-2.75,2.39,2.39,0,0,0-2.5-2.64,3.12,3.12,0,0,0-1.89.68l-.5-.3.37-4.79h4.73v.63h-4.09l-.33,3.7a3.32,3.32,0,0,1,1.83-.54,2.92,2.92,0,0,1,3.12,3.22,3.26,3.26,0,0,1-3.27,3.42A4.26,4.26,0,0,1,241.87,161.84Z"/><rect class="cls-4" x="211.46" y="172.04" width="20" height="20"/><path class="cls-1" d="M222.42,179.63c0-.47,0-1.3.07-1.77h-.06c-.26.44-.55.81-.84,1.28l-3,4.23h6V184h-6.9v-.42l4.75-6.76h.63V187h-.69Z"/><rect class="cls-4" x="211.46" y="148.04" width="20" height="20"/><path class="cls-1" d="M217.93,161.79l.41-.49a3.62,3.62,0,0,0,2.83,1.3,2.22,2.22,0,0,0,2.4-2.25c0-1.41-1-2.37-3.57-2.37v-.63c2.36,0,3.19-1,3.19-2.22a1.87,1.87,0,0,0-2.07-1.9,3.27,3.27,0,0,0-2.34,1.12l-.42-.49a3.92,3.92,0,0,1,2.78-1.25,2.5,2.5,0,0,1,2.78,2.47,2.59,2.59,0,0,1-1.94,2.53v.06a2.73,2.73,0,0,1,2.32,2.67,2.89,2.89,0,0,1-3.13,2.89A4.2,4.2,0,0,1,217.93,161.79Z"/><rect class="cls-4" x="235.46" y="217.04" width="20" height="20"/><path class="cls-1" d="M246.42,224.63c0-.47,0-1.3.07-1.77h-.06c-.26.44-.55.81-.84,1.28l-3,4.23h6V229h-6.9v-.42l4.75-6.76h.63V232h-.69Z"/><rect class="cls-4" x="235.46" y="195.04" width="20" height="20"/><path class="cls-1" d="M241.87,208.84l.41-.49a3.59,3.59,0,0,0,2.8,1.25,2.59,2.59,0,0,0,2.54-2.75,2.39,2.39,0,0,0-2.5-2.64,3.12,3.12,0,0,0-1.89.68l-.5-.3.37-4.79h4.73v.63h-4.09l-.33,3.7a3.32,3.32,0,0,1,1.83-.54,2.92,2.92,0,0,1,3.12,3.22,3.26,3.26,0,0,1-3.27,3.42A4.26,4.26,0,0,1,241.87,208.84Z"/><rect class="cls-4" x="211.46" y="217.04" width="20" height="20"/><path class="cls-1" d="M217.87,230.84l.41-.49a3.59,3.59,0,0,0,2.8,1.25,2.59,2.59,0,0,0,2.54-2.75,2.39,2.39,0,0,0-2.5-2.64,3.12,3.12,0,0,0-1.89.68l-.5-.3.37-4.79h4.73v.63h-4.09l-.33,3.7a3.32,3.32,0,0,1,1.83-.54,2.92,2.92,0,0,1,3.12,3.22,3.26,3.26,0,0,1-3.27,3.42A4.26,4.26,0,0,1,217.87,230.84Z"/><rect class="cls-4" x="211.46" y="195.04" width="20" height="20"/><path class="cls-1" d="M217.87,208.84l.41-.49a3.59,3.59,0,0,0,2.8,1.25,2.59,2.59,0,0,0,2.54-2.75,2.39,2.39,0,0,0-2.5-2.64,3.12,3.12,0,0,0-1.89.68l-.5-.3.37-4.79h4.73v.63h-4.09l-.33,3.7a3.32,3.32,0,0,1,1.83-.54,2.92,2.92,0,0,1,3.12,3.22,3.26,3.26,0,0,1-3.27,3.42A4.26,4.26,0,0,1,217.87,208.84Z"/><rect class="cls-4" x="186.46" y="298.04" width="20" height="20"/><path class="cls-1" d="M198.56,303.43h-5.39v-.63h6.29v.43c-2.46,3.24-3.06,5.81-3.22,9.81h-.77A16,16,0,0,1,198.56,303.43Z"/><rect class="cls-4" x="186.46" y="278.04" width="20" height="20"/><path class="cls-1" d="M192.87,291.84l.41-.49a3.59,3.59,0,0,0,2.8,1.25,2.59,2.59,0,0,0,2.54-2.75,2.39,2.39,0,0,0-2.5-2.64,3.12,3.12,0,0,0-1.89.68l-.5-.3.37-4.79h4.73v.63h-4.09l-.33,3.7a3.32,3.32,0,0,1,1.83-.54,2.92,2.92,0,0,1,3.12,3.22,3.26,3.26,0,0,1-3.27,3.42A4.26,4.26,0,0,1,192.87,291.84Z"/><rect class="cls-4" x="160.46" y="298.04" width="20" height="20"/><rect class="cls-4" x="160.46" y="278.04" width="20" height="20"/><rect class="cls-4" x="186.46" y="258.04" width="20" height="20"/><path class="cls-1" d="M193.3,268.4c0-4.29,1.79-5.79,3.77-5.79a2.81,2.81,0,0,1,2.16,1l-.44.48a2.22,2.22,0,0,0-1.73-.85c-1.64,0-3.05,1.32-3.05,5.17,0,2.5.83,4.22,2.65,4.22a2.33,2.33,0,0,0,2.07-2.59c0-1.48-.66-2.57-2.22-2.57a3.34,3.34,0,0,0-2.55,1.65v-.75a3.51,3.51,0,0,1,2.65-1.5c1.78,0,2.84,1.11,2.84,3.17a3,3,0,0,1-2.8,3.2C194.6,273.23,193.3,271.5,193.3,268.4Z"/><rect class="cls-4" x="186.46" y="238.04" width="20" height="20"/><path class="cls-1" d="M198.56,243.43h-5.39v-.63h6.29v.43c-2.46,3.24-3.06,5.81-3.22,9.81h-.77A16,16,0,0,1,198.56,243.43Z"/><rect class="cls-4" x="160.46" y="258.04" width="20" height="20"/><rect class="cls-4" x="160.46" y="238.04" width="20" height="20"/><rect class="cls-4" x="186.46" y="217.04" width="20" height="20"/><path class="cls-1" d="M193.3,227.4c0-4.29,1.79-5.79,3.77-5.79a2.81,2.81,0,0,1,2.16,1l-.44.48a2.22,2.22,0,0,0-1.73-.85c-1.64,0-3.05,1.32-3.05,5.17,0,2.5.83,4.22,2.65,4.22a2.33,2.33,0,0,0,2.07-2.59c0-1.48-.66-2.57-2.22-2.57a3.34,3.34,0,0,0-2.55,1.65v-.75a3.51,3.51,0,0,1,2.65-1.5c1.78,0,2.84,1.11,2.84,3.17a3,3,0,0,1-2.8,3.2C194.6,232.23,193.3,230.5,193.3,227.4Z"/><rect class="cls-4" x="186.46" y="195.04" width="20" height="20"/><path class="cls-1" d="M192.87,208.84l.41-.49a3.59,3.59,0,0,0,2.8,1.25,2.59,2.59,0,0,0,2.54-2.75,2.39,2.39,0,0,0-2.5-2.64,3.12,3.12,0,0,0-1.89.68l-.5-.3.37-4.79h4.73v.63h-4.09l-.33,3.7a3.32,3.32,0,0,1,1.83-.54,2.92,2.92,0,0,1,3.12,3.22,3.26,3.26,0,0,1-3.27,3.42A4.26,4.26,0,0,1,192.87,208.84Z"/><rect class="cls-4" x="160.46" y="217.04" width="20" height="20"/><rect class="cls-4" x="160.46" y="195.04" width="20" height="20"/><rect class="cls-4" x="186.46" y="172.04" width="20" height="20"/><path class="cls-1" d="M192.87,185.84l.41-.49a3.59,3.59,0,0,0,2.8,1.25,2.59,2.59,0,0,0,2.54-2.75,2.39,2.39,0,0,0-2.5-2.64,3.12,3.12,0,0,0-1.89.68l-.5-.3.37-4.79h4.73v.63h-4.09l-.33,3.7a3.32,3.32,0,0,1,1.83-.54,2.92,2.92,0,0,1,3.12,3.22,3.26,3.26,0,0,1-3.27,3.42A4.26,4.26,0,0,1,192.87,185.84Z"/><rect class="cls-4" x="186.46" y="148.04" width="20" height="20"/><path class="cls-1" d="M193.81,162.41h2.41v-8.48h-1.84v-.48a5.82,5.82,0,0,0,2-.65h.57v9.61h2.23V163h-5.34Z"/><rect class="cls-4" x="160.46" y="172.04" width="20" height="20"/><rect class="cls-4" x="160.46" y="148.04" width="20" height="20"/><rect class="cls-4" x="361.46" y="123.04" width="20" height="20"/><path class="cls-1" d="M367.87,136.84l.41-.49a3.59,3.59,0,0,0,2.8,1.25,2.59,2.59,0,0,0,2.54-2.75,2.39,2.39,0,0,0-2.5-2.64,3.12,3.12,0,0,0-1.89.68l-.5-.3.37-4.79h4.73v.63h-4.09l-.33,3.7a3.32,3.32,0,0,1,1.83-.54,2.92,2.92,0,0,1,3.12,3.22,3.26,3.26,0,0,1-3.27,3.42A4.26,4.26,0,0,1,367.87,136.84Z"/><rect class="cls-4" x="361.46" y="97.04" width="20" height="20"/><path class="cls-1" d="M367.93,110.79l.41-.49a3.62,3.62,0,0,0,2.83,1.3,2.22,2.22,0,0,0,2.4-2.25c0-1.41-1-2.37-3.57-2.37v-.63c2.36,0,3.19-1,3.19-2.22a1.87,1.87,0,0,0-2.07-1.9,3.27,3.27,0,0,0-2.34,1.12l-.42-.49a3.92,3.92,0,0,1,2.78-1.25,2.5,2.5,0,0,1,2.78,2.47,2.59,2.59,0,0,1-1.94,2.53v.06a2.73,2.73,0,0,1,2.32,2.67,2.89,2.89,0,0,1-3.13,2.89A4.2,4.2,0,0,1,367.93,110.79Z"/><rect class="cls-4" x="341.46" y="123.04" width="20" height="20"/><path class="cls-1" d="M348.13,137.59c3.35-3.42,5-5.32,5-7.1a2.06,2.06,0,0,0-2.23-2.26,3.16,3.16,0,0,0-2.38,1.33l-.46-.43a3.83,3.83,0,0,1,2.91-1.52,2.67,2.67,0,0,1,2.89,2.87c0,2-1.86,4-4.7,7,.57,0,1.16-.07,1.72-.07h3.49V138h-6.27Z"/><rect class="cls-4" x="341.46" y="97.04" width="20" height="20"/><path class="cls-1" d="M347.87,110.84l.41-.49a3.59,3.59,0,0,0,2.8,1.25,2.59,2.59,0,0,0,2.54-2.75,2.39,2.39,0,0,0-2.5-2.64,3.12,3.12,0,0,0-1.89.68l-.5-.3.37-4.79h4.73v.63h-4.09l-.33,3.7a3.32,3.32,0,0,1,1.83-.54,2.92,2.92,0,0,1,3.12,3.22,3.26,3.26,0,0,1-3.27,3.42A4.26,4.26,0,0,1,347.87,110.84Z"/><rect class="cls-4" x="321.46" y="123.04" width="20" height="20"/><path class="cls-1" d="M327.87,136.84l.41-.49a3.59,3.59,0,0,0,2.8,1.25,2.59,2.59,0,0,0,2.54-2.75,2.39,2.39,0,0,0-2.5-2.64,3.12,3.12,0,0,0-1.89.68l-.5-.3.37-4.79h4.73v.63h-4.09l-.33,3.7a3.32,3.32,0,0,1,1.83-.54,2.92,2.92,0,0,1,3.12,3.22,3.26,3.26,0,0,1-3.27,3.42A4.26,4.26,0,0,1,327.87,136.84Z"/><rect class="cls-4" x="321.46" y="97.04" width="20" height="20"/><path class="cls-1" d="M328.13,111.59c3.35-3.42,5-5.32,5-7.1a2.06,2.06,0,0,0-2.23-2.26,3.16,3.16,0,0,0-2.38,1.33l-.46-.43a3.83,3.83,0,0,1,2.91-1.52,2.67,2.67,0,0,1,2.89,2.87c0,2-1.86,4-4.7,7,.57,0,1.16-.07,1.72-.07h3.49V112h-6.27Z"/><rect class="cls-4" x="301.46" y="123.04" width="20" height="20"/><path class="cls-1" d="M307.93,136.79l.41-.49a3.62,3.62,0,0,0,2.83,1.3,2.22,2.22,0,0,0,2.4-2.25c0-1.41-1-2.37-3.57-2.37v-.63c2.36,0,3.19-1,3.19-2.22a1.87,1.87,0,0,0-2.07-1.9,3.27,3.27,0,0,0-2.34,1.12l-.42-.49a3.92,3.92,0,0,1,2.78-1.25,2.5,2.5,0,0,1,2.78,2.47,2.59,2.59,0,0,1-1.94,2.53v.06a2.73,2.73,0,0,1,2.32,2.67,2.89,2.89,0,0,1-3.13,2.89A4.2,4.2,0,0,1,307.93,136.79Z"/><rect class="cls-4" x="301.46" y="97.04" width="20" height="20"/><path class="cls-1" d="M307.87,110.84l.41-.49a3.59,3.59,0,0,0,2.8,1.25,2.59,2.59,0,0,0,2.54-2.75,2.39,2.39,0,0,0-2.5-2.64,3.12,3.12,0,0,0-1.89.68l-.5-.3.37-4.79h4.73v.63h-4.09l-.33,3.7a3.32,3.32,0,0,1,1.83-.54,2.92,2.92,0,0,1,3.12,3.22,3.26,3.26,0,0,1-3.27,3.42A4.26,4.26,0,0,1,307.87,110.84Z"/><rect class="cls-4" x="280.46" y="123.04" width="20" height="20"/><path class="cls-1" d="M291.42,130.63c0-.47,0-1.3.07-1.77h-.06c-.26.44-.55.81-.84,1.28l-3,4.23h6V135h-6.9v-.42l4.75-6.76h.63V138h-.69Z"/><rect class="cls-4" x="280.46" y="97.04" width="20" height="20"/><path class="cls-1" d="M291.42,104.63c0-.47,0-1.3.07-1.77h-.06c-.26.44-.55.81-.84,1.28l-3,4.23h6V109h-6.9v-.42l4.75-6.76h.63V112h-.69Z"/><rect class="cls-4" x="258.46" y="123.04" width="20" height="20"/><path class="cls-1" d="M264.87,136.84l.41-.49a3.59,3.59,0,0,0,2.8,1.25,2.59,2.59,0,0,0,2.54-2.75,2.39,2.39,0,0,0-2.5-2.64,3.12,3.12,0,0,0-1.89.68l-.5-.3.37-4.79h4.73v.63h-4.09l-.33,3.7a3.32,3.32,0,0,1,1.83-.54,2.92,2.92,0,0,1,3.12,3.22,3.26,3.26,0,0,1-3.27,3.42A4.26,4.26,0,0,1,264.87,136.84Z"/><rect class="cls-4" x="258.46" y="97.04" width="20" height="20"/><path class="cls-1" d="M264.93,110.79l.41-.49a3.62,3.62,0,0,0,2.83,1.3,2.22,2.22,0,0,0,2.4-2.25c0-1.41-1-2.37-3.57-2.37v-.63c2.36,0,3.19-1,3.19-2.22a1.87,1.87,0,0,0-2.07-1.9,3.27,3.27,0,0,0-2.34,1.12l-.42-.49a3.92,3.92,0,0,1,2.78-1.25,2.5,2.5,0,0,1,2.78,2.47,2.59,2.59,0,0,1-1.94,2.53v.06a2.73,2.73,0,0,1,2.32,2.67,2.89,2.89,0,0,1-3.13,2.89A4.2,4.2,0,0,1,264.93,110.79Z"/><rect class="cls-4" x="235.46" y="123.04" width="20" height="20"/><path class="cls-1" d="M241.87,136.84l.41-.49a3.59,3.59,0,0,0,2.8,1.25,2.59,2.59,0,0,0,2.54-2.75,2.39,2.39,0,0,0-2.5-2.64,3.12,3.12,0,0,0-1.89.68l-.5-.3.37-4.79h4.73v.63h-4.09l-.33,3.7a3.32,3.32,0,0,1,1.83-.54,2.92,2.92,0,0,1,3.12,3.22,3.26,3.26,0,0,1-3.27,3.42A4.26,4.26,0,0,1,241.87,136.84Z"/><rect class="cls-4" x="235.46" y="97.04" width="20" height="20"/><path class="cls-1" d="M246.42,104.63c0-.47,0-1.3.07-1.77h-.06c-.26.44-.55.81-.84,1.28l-3,4.23h6V109h-6.9v-.42l4.75-6.76h.63V112h-.69Z"/><rect class="cls-4" x="211.46" y="123.04" width="20" height="20"/><path class="cls-1" d="M217.93,136.79l.41-.49a3.62,3.62,0,0,0,2.83,1.3,2.22,2.22,0,0,0,2.4-2.25c0-1.41-1-2.37-3.57-2.37v-.63c2.36,0,3.19-1,3.19-2.22a1.87,1.87,0,0,0-2.07-1.9,3.27,3.27,0,0,0-2.34,1.12l-.42-.49a3.92,3.92,0,0,1,2.78-1.25,2.5,2.5,0,0,1,2.78,2.47,2.59,2.59,0,0,1-1.94,2.53v.06a2.73,2.73,0,0,1,2.32,2.67,2.89,2.89,0,0,1-3.13,2.89A4.2,4.2,0,0,1,217.93,136.79Z"/><rect class="cls-4" x="211.46" y="97.04" width="20" height="20"/><path class="cls-1" d="M218.13,111.59c3.35-3.42,5-5.32,5-7.1a2.06,2.06,0,0,0-2.23-2.26,3.16,3.16,0,0,0-2.38,1.33l-.46-.43a3.83,3.83,0,0,1,2.91-1.52,2.67,2.67,0,0,1,2.89,2.87c0,2-1.86,4-4.7,7,.57,0,1.16-.07,1.72-.07h3.49V112h-6.27Z"/><rect class="cls-4" x="186.46" y="123.04" width="20" height="20"/><path class="cls-1" d="M192.93,136.79l.41-.49a3.62,3.62,0,0,0,2.83,1.3,2.22,2.22,0,0,0,2.4-2.25c0-1.41-1-2.37-3.57-2.37v-.63c2.36,0,3.19-1,3.19-2.22a1.87,1.87,0,0,0-2.07-1.9,3.27,3.27,0,0,0-2.34,1.12l-.42-.49a3.92,3.92,0,0,1,2.78-1.25,2.5,2.5,0,0,1,2.78,2.47,2.59,2.59,0,0,1-1.94,2.53v.06a2.73,2.73,0,0,1,2.32,2.67,2.89,2.89,0,0,1-3.13,2.89A4.2,4.2,0,0,1,192.93,136.79Z"/><rect class="cls-4" x="186.46" y="97.04" width="20" height="20"/><rect class="cls-4" x="160.46" y="123.04" width="20" height="20"/><rect class="cls-4" x="160.46" y="97.04" width="20" height="20"/><path class="cls-5" d="M164.13,130.56c-7.6.28-12.86-6.7-12.2-12.46.63-5.49,6.75-10.64,13.79-9"/><path class="cls-6" d="M163.94,130.56c-7.59.28-12.86-6.7-12.19-12.46.63-5.49,6.75-10.64,13.78-9"/><circle class="cls-7" cx="164.13" cy="130.56" r="2.48"/><path class="cls-5" d="M163.77,180c-7.59.24-12.86-5.69-12.19-10.58.63-4.67,6.75-9.05,13.78-7.65"/><path class="cls-6" d="M163.59,180c-7.6.24-12.86-5.69-12.2-10.58.64-4.67,6.76-9.05,13.79-7.65"/><circle class="cls-7" cx="163.77" cy="180.05" r="2.48"/><path class="cls-5" d="M163.66,156.56c-7.59.29-12.86-6.69-12.19-12.45.63-5.49,6.75-10.65,13.78-9"/><path class="cls-6" d="M163.48,156.56c-7.6.29-12.86-6.69-12.2-12.45.64-5.49,6.75-10.65,13.79-9"/><circle class="cls-7" cx="163.66" cy="156.56" r="2.48"/><path class="cls-5" d="M163.66,202.69c-7.59.24-12.86-5.69-12.19-10.59.63-4.66,6.75-9,13.78-7.64"/><path class="cls-6" d="M163.48,202.69c-7.6.24-12.86-5.69-12.2-10.59.64-4.66,6.75-9,13.79-7.64"/><circle class="cls-7" cx="163.66" cy="202.7" r="2.48"/><path class="cls-5" d="M163.18,225.46c-7.59.25-12.86-5.69-12.19-10.58.63-4.67,6.75-9,13.78-7.65"/><path class="cls-6" d="M163,225.46c-7.6.25-12.86-5.69-12.2-10.58.64-4.67,6.75-9,13.79-7.65"/><circle class="cls-7" cx="163.18" cy="225.47" r="2.48"/><path class="cls-5" d="M163.07,248.11c-7.59.24-12.86-5.69-12.2-10.58.64-4.67,6.76-9.05,13.79-7.65"/><path class="cls-6" d="M162.89,248.11c-7.6.24-12.87-5.69-12.2-10.58.63-4.67,6.75-9.05,13.79-7.65"/><circle class="cls-7" cx="163.07" cy="248.12" r="2.48"/><path class="cls-5" d="M162.53,268.23c-7.59.2-12.86-4.84-12.19-9,.63-4,6.75-7.69,13.78-6.5"/><path class="cls-6" d="M162.35,268.23c-7.6.2-12.86-4.84-12.2-9,.64-4,6.76-7.69,13.79-6.5"/><circle class="cls-7" cx="162.53" cy="268.23" r="2.48"/><path class="cls-5" d="M162.65,288.34c-7.6.2-12.87-4.84-12.2-9,.63-4,6.75-7.69,13.79-6.5"/><path class="cls-6" d="M162.46,288.34c-7.59.2-12.86-4.84-12.2-9,.64-4,6.76-7.69,13.79-6.5"/><circle class="cls-7" cx="162.65" cy="288.34" r="2.48"/><path class="cls-5" d="M162.59,310.56c-7.59.2-12.86-4.84-12.19-9,.63-4,6.75-7.69,13.78-6.5"/><path class="cls-6" d="M162.41,310.56c-7.6.2-12.86-4.84-12.2-9,.64-4,6.75-7.69,13.79-6.5"/><circle class="cls-7" cx="162.59" cy="310.56" r="2.48"/><path class="cls-1" d="M102.58,113.47h.85l1.79,5c.22.64.45,1.27.67,1.91H106c.22-.64.42-1.27.65-1.91l1.78-5h.85V122h-.58V116.4c0-.69,0-1.59.08-2.31h0L108,116l-1.85,5.1h-.52l-1.85-5.1-.68-1.91h0c0,.72.07,1.62.07,2.31V122h-.55Z"/><path class="cls-1" d="M111.17,118.93c0-2.09,1.3-3.29,2.8-3.29s2.81,1.2,2.81,3.29-1.31,3.26-2.81,3.26S111.17,121,111.17,118.93Zm5,0c0-1.65-.94-2.79-2.2-2.79s-2.2,1.14-2.2,2.79.94,2.75,2.2,2.75S116.17,120.57,116.17,118.93Z"/><path class="cls-1" d="M117.59,115.79h.63l1.4,3.91c.2.61.43,1.24.63,1.8h0c.21-.56.43-1.19.64-1.8l1.4-3.91h.59L120.62,122h-.68Z"/><path class="cls-1" d="M123.74,118.93c0-2,1.32-3.29,2.72-3.29s2.39,1,2.39,2.88a2.42,2.42,0,0,1,0,.47h-4.49a2.43,2.43,0,0,0,2.35,2.7,2.82,2.82,0,0,0,1.68-.55l.23.44a3.45,3.45,0,0,1-2,.61A3,3,0,0,1,123.74,118.93Zm4.57-.41c0-1.59-.72-2.39-1.84-2.39a2.33,2.33,0,0,0-2.14,2.39Z"/><path class="cls-1" d="M102.58,126.69h.85l1.79,5,.67,1.9H106c.22-.63.42-1.27.65-1.9l1.78-5h.85v8.57h-.58v-5.63c0-.7,0-1.6.08-2.31h0l-.67,1.91-1.85,5.1h-.52l-1.85-5.1-.68-1.91h0c0,.71.07,1.61.07,2.31v5.63h-.55Z"/><path class="cls-1" d="M111.17,132.15c0-2,1.32-3.29,2.72-3.29s2.39,1.06,2.39,2.89a2.48,2.48,0,0,1,0,.47h-4.49a2.44,2.44,0,0,0,2.35,2.7,2.82,2.82,0,0,0,1.68-.55l.23.43a3.38,3.38,0,0,1-2,.62A3,3,0,0,1,111.17,132.15Zm4.57-.4c0-1.6-.72-2.39-1.84-2.39a2.32,2.32,0,0,0-2.14,2.39Z"/><path class="cls-1" d="M117.33,133.71c0-1.39,1.25-2.05,4-2.36,0-1-.25-2-1.47-2a3.39,3.39,0,0,0-2,.73l-.27-.43a4.21,4.21,0,0,1,2.32-.81c1.48,0,2,1.08,2,2.41v4h-.48l-.07-.81h0a3.73,3.73,0,0,1-2.22,1A1.64,1.64,0,0,1,117.33,133.71Zm4,.2v-2.12c-2.57.3-3.44.89-3.44,1.89a1.17,1.17,0,0,0,1.32,1.24A3.28,3.28,0,0,0,121.36,133.91Z"/><path class="cls-1" d="M123.38,134.55l.34-.41a2.87,2.87,0,0,0,2,.79c1,0,1.49-.58,1.49-1.24s-.81-1.12-1.53-1.38c-.94-.34-2-.72-2-1.79,0-.9.71-1.66,2-1.66a2.91,2.91,0,0,1,1.78.65l-.31.41a2.39,2.39,0,0,0-1.49-.57c-1,0-1.41.56-1.41,1.14s.73,1,1.48,1.26c1,.37,2,.69,2,1.91a1.86,1.86,0,0,1-2.1,1.76A3.57,3.57,0,0,1,123.38,134.55Z"/><path class="cls-1" d="M129.33,133v-4h.57V133c0,1.32.42,2,1.42,2,.75,0,1.29-.39,2-1.27V129h.57v6.24h-.48l-.07-1h0a2.79,2.79,0,0,1-2.11,1.2C129.93,135.42,129.33,134.63,129.33,133Z"/><path class="cls-1" d="M136.3,129h.49l.06,1.16h0a2.17,2.17,0,0,1,1.78-1.32,1.29,1.29,0,0,1,.61.13l-.13.52a1.47,1.47,0,0,0-.56-.1c-.56,0-1.23.42-1.7,1.61v4.24h-.58Z"/><path class="cls-1" d="M139.77,132.15c0-2,1.32-3.29,2.72-3.29s2.39,1.06,2.39,2.89a2.48,2.48,0,0,1,0,.47h-4.49a2.44,2.44,0,0,0,2.35,2.7,2.82,2.82,0,0,0,1.68-.55l.23.43a3.38,3.38,0,0,1-2,.62A3,3,0,0,1,139.77,132.15Zm4.57-.4c0-1.6-.72-2.39-1.84-2.39a2.32,2.32,0,0,0-2.14,2.39Z"/><path class="cls-1" d="M102.58,140.3h.85l1.79,5c.22.64.45,1.27.67,1.91H106c.22-.64.42-1.27.65-1.91l1.78-5h.85v8.57h-.58v-5.64c0-.69,0-1.59.08-2.31h0l-.67,1.91-1.85,5.1h-.52l-1.85-5.1-.68-1.91h0c0,.72.07,1.62.07,2.31v5.64h-.55Z"/><path class="cls-1" d="M111.17,145.76c0-2.09,1.3-3.29,2.8-3.29s2.8,1.2,2.8,3.29S115.47,149,114,149,111.17,147.82,111.17,145.76Zm5,0c0-1.65-.94-2.79-2.2-2.79s-2.2,1.14-2.2,2.79.94,2.75,2.2,2.75S116.17,147.4,116.17,145.76Z"/><path class="cls-1" d="M117.59,142.62h.63l1.4,3.91c.2.61.43,1.24.63,1.8h0c.21-.56.43-1.19.64-1.8l1.4-3.91h.59l-2.32,6.25h-.67Z"/><path class="cls-1" d="M123.74,145.76c0-2,1.32-3.29,2.72-3.29s2.39,1.05,2.39,2.88a2.42,2.42,0,0,1,0,.47h-4.49a2.43,2.43,0,0,0,2.35,2.7,2.82,2.82,0,0,0,1.68-.55l.23.44a3.45,3.45,0,0,1-2,.61A3,3,0,0,1,123.74,145.76Zm4.57-.41c0-1.59-.72-2.39-1.84-2.39a2.33,2.33,0,0,0-2.14,2.39Z"/><path class="cls-1" d="M102.19,161.12a.56.56,0,0,1,.55-.6.56.56,0,0,1,.55.6.55.55,0,0,1-.55.58A.56.56,0,0,1,102.19,161.12Z"/><path class="cls-1" d="M105,161.12a.55.55,0,1,1,1.1,0,.55.55,0,1,1-1.1,0Z"/><path class="cls-1" d="M107.88,161.12a.56.56,0,1,1,1.11,0,.56.56,0,1,1-1.11,0Z"/><path class="cls-5" d="M68.45,135.56c-7.59.28-12.86-6.7-12.19-12.46.63-5.49,6.75-10.64,13.78-9"/><path class="cls-6" d="M68.27,135.56c-7.6.28-12.86-6.7-12.2-12.46.64-5.49,6.76-10.64,13.79-9"/><circle class="cls-7" cx="68.45" cy="135.56" r="2.48"/><line class="cls-8" x1="98.25" y1="131.04" x2="74.69" y2="134.8"/><line class="cls-8" x1="98.25" y1="118.04" x2="60.23" y2="124.11"/><line class="cls-6" x1="183.65" y1="299.6" x2="183.65" y2="97.98"/><path class="cls-6" d="M171.48,311.56a12,12,0,0,0,12-12"/><path class="cls-6" d="M190.65,91a7,7,0,0,0-7,7"/><path class="cls-6" d="M197.65,98a7,7,0,0,0-7-7"/><line class="cls-6" x1="197.65" y1="104.63" x2="197.65" y2="97.63"/><circle class="cls-7" cx="197.55" cy="104.63" r="2.48"/><line class="cls-9" x1="336.46" y1="84.89" x2="236.46" y2="84.89"/><path class="cls-1" d="M249.18,77.2c0-2.72,1.48-4.43,3.66-4.43a3,3,0,0,1,2.23,1l-.36.4a2.43,2.43,0,0,0-1.87-.88c-1.88,0-3,1.49-3,3.87s1.15,3.92,3,3.92a2.76,2.76,0,0,0,2.17-1l.35.37a3.18,3.18,0,0,1-2.55,1.22C250.65,81.65,249.18,79.92,249.18,77.2Z"/><path class="cls-1" d="M256.47,78.39c0-2.09,1.3-3.29,2.8-3.29s2.8,1.2,2.8,3.29-1.3,3.26-2.8,3.26S256.47,80.45,256.47,78.39Zm5,0c0-1.64-.94-2.78-2.2-2.78s-2.2,1.14-2.2,2.78.94,2.76,2.2,2.76S261.47,80,261.47,78.39Z"/><path class="cls-1" d="M263.94,80.66V72.15h.57v8.59c0,.28.11.41.27.41a.79.79,0,0,0,.23,0l.1.47a1.43,1.43,0,0,1-.41.06C264.2,81.65,263.94,81.34,263.94,80.66Z"/><path class="cls-1" d="M267,80.66V72.15h.57v8.59c0,.28.12.41.27.41a.88.88,0,0,0,.24,0l.09.47a1.43,1.43,0,0,1-.41.06C267.28,81.65,267,81.34,267,80.66Z"/><path class="cls-1" d="M269.57,78.39c0-2,1.33-3.29,2.72-3.29s2.39,1.05,2.39,2.89a2.53,2.53,0,0,1,0,.47h-4.49a2.45,2.45,0,0,0,2.35,2.7,2.82,2.82,0,0,0,1.68-.56l.24.44a3.41,3.41,0,0,1-2,.61A3,3,0,0,1,269.57,78.39Zm4.57-.41c0-1.59-.72-2.38-1.84-2.38A2.32,2.32,0,0,0,270.16,78Z"/><path class="cls-1" d="M275.85,78.39c0-2.09,1.34-3.29,2.85-3.29a2.58,2.58,0,0,1,1.83.77l-.34.4a2.08,2.08,0,0,0-1.47-.66c-1.28,0-2.27,1.14-2.27,2.78s.9,2.76,2.26,2.76a2.52,2.52,0,0,0,1.67-.72l.3.4a3,3,0,0,1-2,.82C277.07,81.65,275.85,80.45,275.85,78.39Z"/><path class="cls-1" d="M282.23,79.77v-4h-1v-.45l1,0,.08-1.81h.48v1.81h1.81v.5H282.8v4.06c0,.79.2,1.33,1.06,1.33a2.25,2.25,0,0,0,.79-.2l.15.47a3.47,3.47,0,0,1-1,.23C282.58,81.65,282.23,80.89,282.23,79.77Z"/><path class="cls-1" d="M285.47,78.39c0-2,1.33-3.29,2.72-3.29s2.39,1.05,2.39,2.89a2.53,2.53,0,0,1,0,.47h-4.49a2.45,2.45,0,0,0,2.35,2.7,2.82,2.82,0,0,0,1.68-.56l.24.44a3.44,3.44,0,0,1-2,.61A3,3,0,0,1,285.47,78.39ZM290,78c0-1.59-.72-2.38-1.84-2.38A2.32,2.32,0,0,0,286.06,78Z"/><path class="cls-1" d="M291.76,78.39c0-2,1.27-3.29,2.76-3.29a2.87,2.87,0,0,1,1.89.77l0-1.15V72.15H297V81.5h-.49l-.06-.81h0a2.92,2.92,0,0,1-2,1C292.77,81.65,291.76,80.49,291.76,78.39Zm4.62,1.72v-3.7a2.65,2.65,0,0,0-1.82-.8c-1.24,0-2.2,1.21-2.2,2.78s.74,2.75,2.06,2.75A2.78,2.78,0,0,0,296.38,80.11Z"/><path class="cls-1" d="M302,72.93h2c2.65,0,3.9,1.66,3.9,4.26S306.64,81.5,304,81.5h-2ZM303.93,81c2.33,0,3.33-1.57,3.33-3.8s-1-3.75-3.33-3.75h-1.32V81Z"/><path class="cls-1" d="M309.35,79.94c0-1.38,1.25-2,4-2.35,0-1-.24-2-1.47-2a3.42,3.42,0,0,0-2,.74l-.27-.43A4.24,4.24,0,0,1,312,75.1c1.48,0,2,1.07,2,2.41v4h-.48l-.06-.81h0a3.71,3.71,0,0,1-2.22,1A1.63,1.63,0,0,1,309.35,79.94Zm4,.21V78c-2.56.29-3.44.89-3.44,1.88a1.17,1.17,0,0,0,1.32,1.24A3.26,3.26,0,0,0,313.38,80.15Z"/><path class="cls-1" d="M316.19,79.77v-4h-1v-.45l1,0,.07-1.81h.49v1.81h1.81v.5h-1.81v4.06c0,.79.2,1.33,1.06,1.33a2.19,2.19,0,0,0,.78-.2l.15.47a3.47,3.47,0,0,1-1,.23C316.54,81.65,316.19,80.89,316.19,79.77Z"/><path class="cls-1" d="M319.36,79.94c0-1.38,1.25-2,4-2.35,0-1-.24-2-1.47-2a3.42,3.42,0,0,0-2,.74l-.27-.43A4.24,4.24,0,0,1,322,75.1c1.48,0,2,1.07,2,2.41v4h-.48l-.06-.81h0a3.71,3.71,0,0,1-2.22,1A1.63,1.63,0,0,1,319.36,79.94Zm4,.21V78c-2.56.29-3.44.89-3.44,1.88a1.17,1.17,0,0,0,1.32,1.24A3.26,3.26,0,0,0,323.39,80.15Z"/><line class="cls-6" x1="67.27" y1="252.78" x2="67.27" y2="192.78"/><path class="cls-6" d="M74.28,186a7,7,0,0,0-7,7"/><path class="cls-6" d="M81.28,193a7,7,0,0,0-7-7"/><circle class="cls-7" cx="80.91" cy="192.66" r="2.12"/><path class="cls-6" d="M67.27,252.7a8,8,0,0,1-8,8"/><path class="cls-6" d="M59.27,260.68a8,8,0,0,1-8-8"/><path class="cls-6" d="M51.27,252.71a8,8,0,0,1,8-8"/><path class="cls-6" d="M59.27,241.28a8,8,0,0,1-8-8"/><path class="cls-6" d="M51.27,233.31a8,8,0,0,1,8-8"/><path class="cls-6" d="M59.27,221.78a8,8,0,0,1-8-8"/><path class="cls-6" d="M51.27,213.81a8,8,0,0,1,8-8"/><circle class="cls-7" cx="59.27" cy="241.28" r="2.12"/><circle class="cls-7" cx="59.27" cy="221.78" r="2.12"/><path class="cls-6" d="M57.44,200.79a.55.55,0,1,1,0-1.1.55.55,0,0,1,.58.54A.56.56,0,0,1,57.44,200.79Z"/><path class="cls-6" d="M57.41,197.94a.55.55,0,1,1,0-1.1.55.55,0,1,1,0,1.1Z"/><path class="cls-6" d="M57.38,195.09a.56.56,0,0,1-.61-.54.57.57,0,0,1,.6-.56.55.55,0,1,1,0,1.1Z"/><path class="cls-6" d="M80.84,205.48a.56.56,0,1,1,0-1.11.56.56,0,1,1,0,1.11Z"/><path class="cls-6" d="M80.81,202.63a.57.57,0,0,1-.61-.55.6.6,0,1,1,.61.55Z"/><path class="cls-6" d="M80.78,199.78a.55.55,0,1,1,0-1.1.55.55,0,1,1,0,1.1Z"/><line class="cls-6" x1="67.27" y1="251.78" x2="67.27" y2="224.8"/><path class="cls-7" d="M67.27,221.78a15.25,15.25,0,0,0,2.38,4.28l-2.38-.86-2.37.86A15,15,0,0,0,67.27,221.78Z"/><line class="cls-8" x1="86.47" y1="222.31" x2="72.24" y2="224.59"/><path class="cls-1" d="M89.49,224.18l.38-.41a3.37,3.37,0,0,0,2.52,1.15c1.3,0,2.13-.7,2.13-1.72s-.7-1.41-1.54-1.79l-1.3-.58a2.36,2.36,0,0,1-1.74-2.13,2.25,2.25,0,0,1,2.49-2.11,3.32,3.32,0,0,1,2.39,1l-.35.4a2.73,2.73,0,0,0-2-.88c-1.13,0-1.89.61-1.89,1.53S91.4,220,92,220.32l1.3.57c1,.43,1.8,1,1.8,2.27s-1.08,2.31-2.74,2.31A3.75,3.75,0,0,1,89.49,224.18Z"/><path class="cls-1" d="M96.73,223.59v-4h-1v-.45l1-.05.07-1.81h.49v1.81h1.81v.5H97.3v4.06c0,.8.2,1.34,1.06,1.34a2.3,2.3,0,0,0,.79-.2l.15.46a3.52,3.52,0,0,1-1,.24C97.08,225.47,96.73,224.71,96.73,223.59Z"/><path class="cls-1" d="M100.64,219.07h.48l.07,1.16h0a2.2,2.2,0,0,1,1.78-1.32,1.33,1.33,0,0,1,.62.13l-.13.52a1.5,1.5,0,0,0-.56-.1c-.57,0-1.23.43-1.71,1.61v4.24h-.57Z"/><path class="cls-1" d="M104,223.76c0-1.39,1.25-2,4-2.36,0-1-.25-2-1.47-2a3.36,3.36,0,0,0-2,.73l-.27-.43a4.21,4.21,0,0,1,2.32-.81c1.48,0,2,1.08,2,2.41v4h-.49l-.06-.81h0a3.62,3.62,0,0,1-2.21,1A1.64,1.64,0,0,1,104,223.76Zm4,.21v-2.13c-2.57.3-3.44.89-3.44,1.89A1.17,1.17,0,0,0,106,225,3.33,3.33,0,0,0,108.07,224Z"/><path class="cls-1" d="M110.87,223.59v-4h-1v-.45l1-.05.08-1.81h.49v1.81h1.81v.5h-1.81v4.06c0,.8.2,1.34,1.06,1.34a2.25,2.25,0,0,0,.78-.2l.15.46a3.52,3.52,0,0,1-1,.24C111.22,225.47,110.87,224.71,110.87,223.59Z"/><path class="cls-1" d="M114.11,222.2c0-2,1.33-3.29,2.73-3.29s2.39,1.06,2.39,2.89a2.49,2.49,0,0,1,0,.47H114.7a2.44,2.44,0,0,0,2.35,2.7,2.82,2.82,0,0,0,1.68-.55l.24.43a3.41,3.41,0,0,1-2,.62A3,3,0,0,1,114.11,222.2Zm4.57-.4c0-1.6-.72-2.39-1.84-2.39a2.33,2.33,0,0,0-2.14,2.39Z"/><path class="cls-1" d="M120.26,226.59a2,2,0,0,1,.93-1.51V225a1.13,1.13,0,0,1-.55-1,1.48,1.48,0,0,1,.68-1.15v0a2.33,2.33,0,0,1-.79-1.71,2.16,2.16,0,0,1,2.2-2.21,2.26,2.26,0,0,1,.83.16h2.11v.49h-1.45a2,2,0,0,1,.69,1.56,2.15,2.15,0,0,1-2.18,2.21,2.11,2.11,0,0,1-1-.27,1.15,1.15,0,0,0-.51.91c0,.44.26.81,1.19.81h1.34c1.4,0,2.06.44,2.06,1.43s-1.15,2.11-3,2.11C121.25,228.32,120.26,227.64,120.26,226.59Zm4.93-.32c0-.69-.5-1-1.44-1h-1.34a4.43,4.43,0,0,1-.77-.1,1.61,1.61,0,0,0-.82,1.31c0,.79.75,1.32,2.07,1.32S125.19,227.06,125.19,226.27Zm-.84-5.15a1.62,1.62,0,1,0-3.23,0,1.62,1.62,0,1,0,3.23,0Z"/><path class="cls-1" d="M126.51,228l.14-.49a1.49,1.49,0,0,0,.51.1c.76,0,1.28-.71,1.59-1.66l.18-.54-2.57-6.36H127l1.51,3.92c.2.53.45,1.2.68,1.76h.05c.2-.56.4-1.23.58-1.76l1.33-3.92h.59l-2.47,7c-.35,1-1,2.05-2.1,2.05A1.59,1.59,0,0,1,126.51,228Z"/></svg>